<?xml version="1.0" encoding="utf-8"?>
<!-- Generator: Adobe Illustrator 16.0.0, SVG Export Plug-In . SVG Version: 6.00 Build 0)  -->
<!DOCTYPE svg PUBLIC "-//W3C//DTD SVG 1.1//EN" "http://www.w3.org/Graphics/SVG/1.1/DTD/svg11.dtd">
<svg version="1.1" id="Layer_1" xmlns="http://www.w3.org/2000/svg" xmlns:xlink="http://www.w3.org/1999/xlink" x="0px" y="0px"
	 width="360px" height="360px" viewBox="-86.677 -24.753 360 360" enable-background="new -86.677 -24.753 360 360"
	 xml:space="preserve">
<g>
	<g>
		<path fill="#FFFFFF" d="M50.8,300.573c-4.454,0-8.568-1.395-12.227-4.143c-3.805-2.852-6.228-6.922-7.007-11.777l-0.792-3.979
			c-0.55-3.278-1.019-7.217-1.433-12.043c-0.393-4.576-0.724-8.44-0.982-11.582l-0.394-5.127c-0.271-3.492-0.538-7.559-0.792-12.075
			c-0.25-4.331-0.621-8.007-1.104-10.917l-0.794-5.549c-0.546-3.27-1.011-7.187-1.42-11.971c-0.375-4.375-0.817-8.107-1.312-11.091
			l-0.795-5.165c-0.531-3.156-1.058-7.042-1.599-11.796c-0.523-4.537-0.922-8.448-1.184-11.622l-0.758-6.059
			c-0.558-3.637-0.841-7.938-0.841-12.784c0-4.211-0.236-7.77-0.703-10.579l-0.048-0.29l-0.408-6.122
			c-0.256-3.041-0.644-6.854-1.154-11.333c-0.51-4.423-1.016-8.167-1.502-11.121l-1.125-5.25c-0.837-3.373-1.535-7.489-2.076-12.238
			c-0.535-4.643-0.812-8.698-0.822-12.048l-0.38-6.089c-0.266-3.416-0.533-7.411-0.786-11.785
			c-0.249-4.195-0.621-7.941-1.107-11.129L6,47.798v-0.525c0-3.96,1.079-7.767,3.205-11.315c1.791-2.979,5.375-6.622,12.328-7.193
			l2.974-0.425h0.426c4.676,0,8.838,1.314,12.369,3.907c2.7,1.993,6.003,5.762,6.536,12.467l0.392,3.136l0.011,0.146
			c0.236,3.115,0.545,6.828,0.974,11.684c0.384,4.357,0.83,8.18,1.324,11.364l0.025,0.162l0.389,3.892
			c0.534,3.261,1.005,7.242,1.399,11.835c0.381,4.446,0.822,8.305,1.311,11.472l0.826,4.541l0.023,0.312
			c0.25,3.296,0.637,7.167,1.151,11.504c0.517,4.416,1.034,8.296,1.538,11.543l0.035,0.259l0.38,3.426
			c0.374,2.511,1.282,3.395,1.937,3.841c1.414,0.97,3.096,1.459,5.149,1.501l6.931-0.729c3.273-0.537,7.26-1.008,11.853-1.401
			c4.476-0.384,8.361-0.83,11.546-1.323l8.683-1.185c3.519-0.539,7.586-1.013,12.088-1.41c4.348-0.384,8.172-0.83,11.367-1.324
			l0.209-0.033l9.617-0.801c1.714-0.141,3.2-0.896,4.681-2.378c1.36-1.36,1.967-2.771,1.967-4.576v-16.656
			c0-4.73,0.138-8.908,0.41-12.417l0.387-5.815c0.247-3.012,0.307-6.68,0.185-10.993c-0.137-4.63-0.072-8.787,0.193-12.35v-7.219
			c0-3.31,0.067-7.259,0.199-11.738c0.129-4.601,0.331-8.567,0.598-11.784l0.396-7.894c0.376-4.963,2.593-9.3,6.409-12.543
			C152.138,7.602,156.346,6,160.929,6h3.135c7.062,0,10.91,3.268,12.895,6.009c2.449,3.395,3.688,7.345,3.688,11.748v0.25
			l-0.434,5.201l-0.042,0.247c-0.476,2.831-0.778,6.443-0.899,10.737c-0.128,4.359-0.193,8.322-0.193,11.784v16.657
			c0,4.652-0.138,8.827-0.409,12.407l-0.39,5.46c-0.252,3.002-0.377,6.723-0.377,11.134v11.374l0.38,6.083
			c0.277,3.654,0.209,8-0.207,12.841c-0.375,4.386-0.566,8.104-0.566,11.048v0.187l-0.403,6.458c-0.254,3.29-0.38,7.155-0.38,11.579
			v18.226c0,3.149-0.065,6.987-0.198,11.729c-0.137,4.65-0.339,8.764-0.603,12.238l-0.013,0.17l-0.825,6.174
			c-0.473,3.055-0.713,6.768-0.713,11.035c0,4.665-0.139,8.721-0.412,12.053l-0.385,5.787c-0.252,3.254-0.312,7.061-0.185,11.377
			c0.13,4.645,0.065,8.67-0.194,11.979v5.639c0,4.819-2.041,9.206-5.901,12.687c-3.743,3.367-7.861,5.07-12.248,5.07h-2.578
			l-0.226-0.017c-4.857-0.367-8.969-2.207-12.222-5.47c-3.321-3.311-5.083-7.694-5.083-12.664v-4.163l0.02-0.245
			c0.247-3.01,0.372-6.732,0.372-11.07v-18.225c0-3.285,0.205-7.348,0.61-12.073c0.391-4.551,0.714-8.521,0.976-11.905l0.011-0.141
			l0.727-5.814c-0.233-3.426-0.082-7.336,0.462-11.924c0.473-4.027,0.596-7.74,0.365-11.023l-0.389-5.055
			c-0.146-1.744-0.757-3.149-1.918-4.387c-0.528-0.559-1.245-1.087-2.821-1.087c-0.19,0-0.385,0.009-0.583,0.022l-5.512,0.395
			c-2.903,0.244-6.678,0.691-11.146,1.327c-4.489,0.644-8.334,1.229-11.423,1.741l-8.292,1.188
			c-3.134,0.525-7.049,1.122-11.638,1.774c-4.763,0.682-8.662,1.144-11.915,1.411l-0.23,0.014l-8.899,0.387
			c-1.933,0.17-2.728,0.946-3.298,1.762c-1.044,1.49-1.586,2.957-1.653,4.473l0.716,5.727c0.526,3.189,1.047,7.03,1.589,11.736
			c0.511,4.486,1.023,8.27,1.524,11.256l0.036,0.211l0.805,8.443c0.256,3.121,0.575,6.844,0.952,11.238l0.033,0.379
			c0.394,4.594,0.72,8.597,0.984,12.002l0.396,7.908c0.263,3.213,0.527,7.119,0.787,11.609c0.244,4.34,0.615,8.141,1.103,11.307
			l1.65,9.074v0.541c0,4.65-1.162,8.651-3.453,11.891c-1.792,2.543-5.273,5.678-11.678,6.226l-2.983,0.427H50.8L50.8,300.573z"/>
		<path fill="#F7C22F" d="M164.064,12c3.656,0,6.332,1.176,8.034,3.527c1.696,2.352,2.548,5.095,2.548,8.23l-0.392,4.703
			c-0.527,3.136-0.851,6.994-0.98,11.562c-0.135,4.575-0.196,8.561-0.196,11.954v5.095c0,3.135,0,6.993,0,11.562
			c0,4.574-0.135,8.561-0.392,11.954l-0.392,5.487c-0.264,3.135-0.392,6.993-0.392,11.562c0,4.574,0,8.426,0,11.562l0.392,6.271
			c0.257,3.399,0.196,7.385-0.196,11.954c-0.392,4.575-0.588,8.426-0.588,11.562l-0.392,6.271
			c-0.264,3.398-0.392,7.385-0.392,11.954c0,4.574,0,8.426,0,11.562v6.663c0,3.135-0.067,6.992-0.196,11.562
			c-0.135,4.573-0.331,8.561-0.588,11.953l-0.784,5.879c-0.526,3.398-0.784,7.385-0.784,11.953c0,4.574-0.135,8.426-0.392,11.562
			l-0.392,5.879c-0.263,3.398-0.331,7.385-0.196,11.953c0.128,4.574,0.061,8.426-0.196,11.562v5.88c0,3.135-1.311,5.879-3.919,8.229
			c-2.615,2.353-5.358,3.526-8.23,3.526h-2.352c-3.398-0.258-6.209-1.5-8.426-3.724c-2.223-2.217-3.331-5.026-3.331-8.427v-3.924
			c0.257-3.135,0.392-6.985,0.392-11.562c0-4.567,0-8.555,0-11.954v-6.27c0-3.135,0.196-6.987,0.588-11.562
			c0.392-4.568,0.717-8.555,0.98-11.953l0.784-6.271c-0.263-3.135-0.135-6.92,0.392-11.366c0.521-4.44,0.649-8.487,0.392-12.149
			l-0.392-5.094c-0.263-3.136-1.439-5.812-3.527-8.035c-1.876-1.985-4.275-2.979-7.194-2.979c-0.338,0-0.684,0.014-1.036,0.04
			l-5.487,0.392c-3.135,0.264-6.993,0.723-11.562,1.373c-4.574,0.654-8.426,1.242-11.562,1.764l-8.23,1.176
			c-3.135,0.527-6.993,1.115-11.562,1.764c-4.574,0.655-8.426,1.114-11.562,1.372l-9.014,0.392
			c-3.398,0.264-6.013,1.703-7.838,4.312c-1.831,2.614-2.743,5.358-2.743,8.229l0.784,6.271c0.521,3.135,1.041,6.993,1.568,11.562
			c0.521,4.574,1.041,8.426,1.567,11.562l0.784,8.229c0.257,3.135,0.588,6.994,0.979,11.562c0.392,4.574,0.717,8.561,0.98,11.954
			l0.392,7.838c0.257,3.136,0.521,6.994,0.784,11.562c0.257,4.576,0.649,8.562,1.176,11.955l1.567,8.621
			c0,3.398-0.784,6.209-2.352,8.426c-1.567,2.225-4.054,3.467-7.446,3.725l-2.743,0.393c-3.136,0-6.014-0.979-8.623-2.939
			c-2.615-1.959-4.182-4.635-4.703-8.034l-0.784-3.919c-0.526-3.137-0.979-6.986-1.372-11.562c-0.392-4.568-0.723-8.426-0.98-11.562
			l-0.392-5.095c-0.264-3.394-0.527-7.379-0.784-11.953c-0.263-4.568-0.655-8.428-1.176-11.562l-0.784-5.486
			c-0.526-3.135-0.98-6.987-1.372-11.562c-0.392-4.568-0.851-8.426-1.372-11.562l-0.784-5.094
			c-0.526-3.136-1.047-6.988-1.567-11.562c-0.527-4.568-0.919-8.426-1.176-11.562l-0.784-6.271
			c-0.526-3.394-0.784-7.38-0.784-11.954c0-4.568-0.263-8.426-0.784-11.562l-0.392-5.879c-0.263-3.135-0.655-6.987-1.176-11.562
			c-0.526-4.568-1.047-8.426-1.567-11.562l-1.176-5.487c-0.784-3.135-1.439-6.987-1.96-11.562
			c-0.526-4.568-0.784-8.426-0.784-11.562l-0.392-6.271c-0.264-3.393-0.527-7.312-0.784-11.757
			c-0.263-4.44-0.655-8.359-1.176-11.758L12,47.272c0-2.872,0.784-5.615,2.352-8.23c1.568-2.609,4.176-4.048,7.838-4.311
			l2.744-0.392c3.393,0,6.332,0.918,8.818,2.744c2.48,1.831,3.852,4.574,4.115,8.23l0.392,3.135
			c0.257,3.399,0.588,7.318,0.979,11.758c0.392,4.446,0.845,8.365,1.372,11.757l0.392,3.919c0.521,3.135,0.98,6.993,1.372,11.562
			c0.392,4.574,0.845,8.561,1.372,11.954l0.784,4.311c0.257,3.398,0.649,7.318,1.176,11.757c0.521,4.446,1.041,8.365,1.568,11.758
			l0.392,3.527c0.521,3.662,2.021,6.338,4.507,8.034c2.48,1.702,5.419,2.547,8.818,2.547l7.447-0.784
			c3.135-0.521,6.987-0.98,11.562-1.372c4.568-0.392,8.555-0.845,11.954-1.372l8.622-1.176c3.393-0.521,7.312-0.979,11.757-1.372
			c4.44-0.392,8.359-0.845,11.758-1.372l9.406-0.784c3.136-0.257,5.94-1.629,8.426-4.115c2.48-2.48,3.724-5.419,3.724-8.818v-5.095
			c0-3.136,0-6.987,0-11.562c0-4.568,0.128-8.555,0.392-11.954l0.392-5.879c0.257-3.135,0.325-6.987,0.196-11.562
			c-0.135-4.568-0.067-8.555,0.196-11.954v-7.446c0-3.135,0.062-6.987,0.196-11.562c0.128-4.568,0.325-8.426,0.588-11.562
			l0.392-7.839c0.257-3.392,1.696-6.203,4.312-8.426c2.608-2.217,5.487-3.332,8.622-3.332h3.131 M164.064,0h-3.135
			c-5.961,0-11.63,2.14-16.393,6.188c-5.064,4.304-8.006,10.066-8.506,16.662l-0.012,0.154l-0.007,0.155l-0.382,7.642
			c-0.272,3.308-0.477,7.35-0.608,12.02c-0.133,4.522-0.201,8.531-0.201,11.898v7c-0.267,3.718-0.331,8.006-0.19,12.754
			c0.115,4.078,0.061,7.524-0.161,10.226l-0.007,0.091l-0.006,0.091l-0.388,5.817c-0.28,3.649-0.422,7.96-0.422,12.814v11.562v5.095
			c0,0.043-0.001,0.076-0.003,0.101c-0.033,0.045-0.097,0.123-0.206,0.232c-0.281,0.281-0.668,0.62-0.922,0.641l-9.42,0.785
			l-0.422,0.035l-0.418,0.065c-3.065,0.474-6.758,0.904-10.977,1.276c-4.609,0.407-8.788,0.894-12.422,1.449l-8.523,1.162
			l-0.108,0.015l-0.108,0.017c-3.052,0.473-6.8,0.902-11.142,1.274c-4.663,0.399-8.744,0.88-12.136,1.43l-6.333,0.667
			c-0.406-0.026-0.711-0.084-0.94-0.151L59.2,125.9l-0.029-0.259l-0.04-0.258c-0.493-3.174-1-6.98-1.507-11.312
			c-0.506-4.271-0.885-8.056-1.128-11.268l-0.047-0.624l-0.112-0.616l-0.755-4.155c-0.464-3.019-0.884-6.714-1.25-10.987
			c-0.4-4.661-0.879-8.73-1.425-12.106l-0.354-3.544l-0.032-0.326l-0.05-0.323c-0.474-3.054-0.904-6.745-1.276-10.97
			c-0.426-4.83-0.733-8.52-0.967-11.609l-0.022-0.292L50.17,46.96l-0.358-2.864c-0.747-8.869-5.254-13.955-8.931-16.668
			c-4.606-3.382-9.962-5.088-15.943-5.088h-0.853l-0.845,0.121l-2.387,0.341c-7.325,0.657-13.271,4.217-16.783,10.06
			C1.366,37.366,0,42.211,0,47.272v1.051l0.183,1.035l1.151,6.523c0.453,2.992,0.803,6.531,1.039,10.522
			c0.252,4.363,0.52,8.367,0.792,11.888l0.363,5.822c0.021,3.537,0.31,7.754,0.862,12.543c0.57,5.016,1.287,9.241,2.188,12.891
			l1.076,5.019c0.464,2.836,0.948,6.434,1.44,10.7c0.499,4.383,0.879,8.118,1.13,11.089l0.385,5.777l0.04,0.586l0.096,0.58
			c0.413,2.485,0.622,5.713,0.622,9.596c0,5.188,0.293,9.642,0.897,13.61l0.732,5.853c0.268,3.215,0.668,7.149,1.193,11.698
			c0.546,4.803,1.084,8.765,1.64,12.09l0.772,5.016l0.011,0.07l0.012,0.07c0.47,2.828,0.891,6.402,1.253,10.621
			c0.42,4.908,0.9,8.957,1.468,12.371l0.764,5.35l0.019,0.134l0.022,0.134c0.448,2.699,0.796,6.162,1.034,10.289
			c0.255,4.545,0.525,8.651,0.8,12.191l0.391,5.085l0.002,0.03l0.002,0.031c0.258,3.146,0.59,7.021,0.984,11.605
			c0.427,4.986,0.916,9.082,1.493,12.521l0.031,0.184l0.037,0.184l0.738,3.689c1.051,6.369,4.269,11.729,9.32,15.514
			c4.643,3.486,10.116,5.336,15.818,5.336h0.852l0.844-0.119l2.402-0.344c8.591-0.786,13.382-5.168,15.899-8.738
			c3.011-4.258,4.543-9.424,4.543-15.34v-1.082l-0.193-1.064l-1.539-8.461c-0.453-2.959-0.799-6.539-1.03-10.643
			c-0.261-4.515-0.526-8.436-0.79-11.676l-0.382-7.648l-0.008-0.164l-0.013-0.164c-0.284-3.666-0.617-7.719-0.988-12.051
			l-0.034-0.393c-0.375-4.379-0.693-8.092-0.942-11.124l-0.006-0.08l-0.008-0.079l-0.784-8.23l-0.041-0.426l-0.071-0.422
			c-0.484-2.881-0.98-6.559-1.479-10.931c-0.549-4.767-1.077-8.665-1.612-11.927l-0.612-4.898c0.02-0.07,0.049-0.154,0.089-0.248
			l7.978-0.347l0.23-0.011l0.229-0.019c3.375-0.276,7.392-0.752,12.282-1.452c4.586-0.652,8.526-1.252,11.702-1.785l8.086-1.154
			l0.134-0.02l0.134-0.021c3.043-0.506,6.845-1.086,11.298-1.723c4.304-0.611,7.939-1.045,10.792-1.287l4.359-0.312l0.377,4.9
			c0.201,2.902,0.086,6.226-0.342,9.877c-0.556,4.688-0.729,8.773-0.525,12.427l-0.64,5.118l-0.035,0.279l-0.022,0.283
			c-0.278,3.598-0.605,7.586-0.972,11.854c-0.425,4.967-0.632,9.084-0.632,12.587v6.271v11.953c0,4.176-0.118,7.735-0.352,10.581
			l-0.04,0.489v0.49v3.92c0,6.598,2.371,12.449,6.857,16.923c4.214,4.226,9.753,6.722,15.996,7.192l0.452,0.033h0.453h2.352
			c4.065,0,10.186-1.146,16.255-6.604c5.168-4.66,7.896-10.588,7.896-17.153V258.2c0.264-3.509,0.327-7.562,0.191-12.367
			c-0.122-4.121-0.066-7.711,0.165-10.689l0.005-0.064l0.004-0.063l0.385-5.789c0.282-3.478,0.425-7.665,0.425-12.45
			c0-3.961,0.216-7.365,0.642-10.117l0.02-0.125l0.017-0.125l0.784-5.879l0.045-0.34l0.026-0.341
			c0.27-3.565,0.478-7.772,0.617-12.505c0.136-4.817,0.201-8.709,0.201-11.915v-6.663v-11.562c0-4.27,0.12-7.979,0.356-11.024
			l0.007-0.09l0.006-0.09l0.392-6.271l0.023-0.374v-0.375c0-2.774,0.183-6.32,0.544-10.538c0.44-5.124,0.511-9.766,0.212-13.798
			l-0.364-5.824V97.634c0-4.244,0.118-7.795,0.35-10.556l0.006-0.076l0.006-0.076l0.39-5.463c0.282-3.724,0.424-8.041,0.424-12.832
			v-11.56v-5.095c0-3.405,0.064-7.308,0.19-11.6c0.114-4.033,0.39-7.368,0.819-9.927l0.083-0.493l0.042-0.498l0.392-4.703
			l0.042-0.498v-0.5c0-5.689-1.62-10.82-4.815-15.25C177.856,3.016,171.551,0,164.064,0L164.064,0z"/>
	</g>
</g>
</svg>
