<?xml version="1.0" encoding="utf-8"?>
<!-- Generator: Adobe Illustrator 16.0.0, SVG Export Plug-In . SVG Version: 6.00 Build 0)  -->
<!DOCTYPE svg PUBLIC "-//W3C//DTD SVG 1.1//EN" "http://www.w3.org/Graphics/SVG/1.1/DTD/svg11.dtd">
<svg version="1.1" id="Layer_1" xmlns="http://www.w3.org/2000/svg" xmlns:xlink="http://www.w3.org/1999/xlink" x="0px" y="0px"
	 width="1019.374px" height="310.493px" viewBox="0 0 1019.374 310.493" enable-background="new 0 0 1019.374 310.493"
	 xml:space="preserve">
<g>
	<g>
		<path fill="#FFFFFF" d="M50.8,300.573c-4.454,0-8.568-1.394-12.227-4.143c-3.805-2.851-6.228-6.922-7.007-11.777l-0.792-3.979
			c-0.55-3.278-1.019-7.217-1.433-12.042c-0.393-4.577-0.724-8.441-0.982-11.583l-0.394-5.126
			c-0.271-3.493-0.538-7.559-0.792-12.076c-0.25-4.331-0.621-8.007-1.104-10.917l-0.794-5.548c-0.546-3.27-1.011-7.187-1.42-11.971
			c-0.375-4.375-0.817-8.107-1.312-11.091l-0.795-5.165c-0.531-3.157-1.058-7.042-1.599-11.796
			c-0.523-4.537-0.922-8.449-1.184-11.622l-0.758-6.059c-0.558-3.636-0.841-7.937-0.841-12.784c0-4.211-0.236-7.77-0.703-10.579
			l-0.048-0.29l-0.408-6.122c-0.256-3.041-0.644-6.854-1.154-11.333c-0.51-4.423-1.016-8.167-1.502-11.121l-1.125-5.25
			c-0.837-3.373-1.535-7.489-2.076-12.238c-0.535-4.643-0.812-8.698-0.822-12.048l-0.38-6.089
			c-0.266-3.416-0.533-7.411-0.786-11.785c-0.249-4.195-0.621-7.941-1.107-11.129L6,47.798v-0.525c0-3.96,1.079-7.767,3.205-11.315
			c1.791-2.979,5.375-6.622,12.328-7.193l2.974-0.425h0.426c4.676,0,8.838,1.314,12.369,3.907c2.7,1.993,6.003,5.762,6.536,12.467
			l0.392,3.136l0.011,0.146c0.236,3.115,0.545,6.828,0.974,11.684c0.384,4.357,0.83,8.18,1.324,11.364l0.025,0.162l0.389,3.892
			c0.534,3.261,1.005,7.242,1.399,11.835c0.381,4.446,0.822,8.305,1.311,11.472l0.826,4.541l0.023,0.312
			c0.25,3.296,0.637,7.167,1.151,11.504c0.517,4.416,1.034,8.296,1.538,11.543l0.035,0.259l0.38,3.426
			c0.374,2.511,1.282,3.395,1.937,3.841c1.414,0.97,3.096,1.459,5.149,1.501l6.931-0.729c3.273-0.537,7.26-1.008,11.853-1.401
			c4.476-0.384,8.361-0.83,11.546-1.323l8.683-1.185c3.519-0.539,7.586-1.013,12.088-1.41c4.348-0.384,8.172-0.83,11.367-1.324
			l0.209-0.033l9.617-0.801c1.714-0.141,3.2-0.896,4.681-2.378c1.36-1.36,1.967-2.771,1.967-4.576v-16.656
			c0-4.73,0.138-8.908,0.41-12.417l0.387-5.815c0.247-3.012,0.307-6.68,0.185-10.993c-0.137-4.63-0.072-8.787,0.193-12.35v-7.219
			c0-3.31,0.067-7.259,0.199-11.738c0.129-4.601,0.331-8.567,0.598-11.784l0.396-7.894c0.376-4.963,2.593-9.3,6.409-12.543
			C152.138,7.602,156.346,6,160.929,6h3.135c7.062,0,10.91,3.268,12.895,6.009c2.449,3.395,3.688,7.345,3.688,11.748v0.25
			l-0.434,5.201l-0.042,0.247c-0.476,2.831-0.778,6.443-0.899,10.737c-0.128,4.359-0.193,8.322-0.193,11.784v16.657
			c0,4.652-0.138,8.827-0.409,12.407l-0.39,5.46c-0.252,3.002-0.377,6.723-0.377,11.134v11.374l0.38,6.083
			c0.277,3.654,0.209,8-0.207,12.841c-0.375,4.386-0.566,8.104-0.566,11.048v0.187l-0.403,6.458c-0.254,3.29-0.38,7.155-0.38,11.579
			v18.225c0,3.15-0.065,6.988-0.198,11.73c-0.137,4.65-0.339,8.764-0.603,12.238l-0.013,0.17l-0.825,6.174
			c-0.473,3.055-0.713,6.768-0.713,11.035c0,4.665-0.139,8.72-0.412,12.052l-0.385,5.787c-0.252,3.255-0.312,7.062-0.185,11.378
			c0.13,4.644,0.065,8.669-0.194,11.979v5.639c0,4.819-2.041,9.206-5.901,12.687c-3.743,3.366-7.861,5.07-12.248,5.07h-2.578
			l-0.226-0.017c-4.857-0.367-8.969-2.207-12.222-5.469c-3.321-3.312-5.083-7.695-5.083-12.664v-4.164l0.02-0.245
			c0.247-3.009,0.372-6.733,0.372-11.071v-18.224c0-3.285,0.205-7.347,0.61-12.073c0.391-4.551,0.714-8.521,0.976-11.905
			l0.011-0.141l0.727-5.814c-0.233-3.427-0.082-7.337,0.462-11.924c0.473-4.028,0.596-7.74,0.365-11.023l-0.389-5.055
			c-0.146-1.744-0.757-3.15-1.918-4.387c-0.528-0.559-1.245-1.087-2.821-1.087c-0.19,0-0.385,0.008-0.583,0.023l-5.512,0.394
			c-2.903,0.244-6.678,0.692-11.146,1.327c-4.489,0.643-8.334,1.229-11.423,1.742l-8.292,1.186
			c-3.134,0.526-7.049,1.123-11.638,1.775c-4.763,0.682-8.662,1.144-11.915,1.411l-0.23,0.014l-8.899,0.387
			c-1.933,0.17-2.728,0.946-3.298,1.761c-1.044,1.491-1.586,2.957-1.653,4.473l0.716,5.727c0.526,3.189,1.047,7.03,1.589,11.736
			c0.511,4.486,1.023,8.27,1.524,11.256l0.036,0.211l0.805,8.443c0.256,3.121,0.575,6.844,0.952,11.238l0.033,0.38
			c0.394,4.593,0.72,8.596,0.984,12.002l0.397,7.908c0.263,3.213,0.527,7.118,0.787,11.609c0.244,4.34,0.615,8.141,1.103,11.306
			l1.65,9.075v0.541c0,4.65-1.162,8.651-3.453,11.891c-1.792,2.542-5.273,5.677-11.678,6.225l-2.983,0.426H50.8z"/>
		<path fill="#F7C22F" d="M164.064,12c3.656,0,6.332,1.176,8.034,3.527c1.696,2.352,2.548,5.095,2.548,8.23l-0.392,4.703
			c-0.527,3.136-0.851,6.994-0.98,11.562c-0.135,4.575-0.196,8.561-0.196,11.954v5.095c0,3.135,0,6.993,0,11.562
			c0,4.574-0.135,8.561-0.392,11.954l-0.392,5.487c-0.264,3.135-0.392,6.993-0.392,11.562c0,4.574,0,8.426,0,11.562l0.392,6.271
			c0.257,3.399,0.196,7.385-0.196,11.954c-0.392,4.575-0.588,8.426-0.588,11.562l-0.392,6.271
			c-0.264,3.398-0.392,7.385-0.392,11.953c0,4.575,0,8.426,0,11.562v6.663c0,3.135-0.067,6.993-0.196,11.562
			c-0.135,4.574-0.331,8.561-0.588,11.953l-0.784,5.879c-0.526,3.399-0.784,7.385-0.784,11.954c0,4.574-0.135,8.426-0.392,11.562
			l-0.392,5.879c-0.263,3.398-0.331,7.385-0.196,11.953c0.128,4.574,0.061,8.426-0.196,11.562v5.879c0,3.135-1.311,5.879-3.919,8.23
			c-2.615,2.352-5.358,3.526-8.23,3.526h-2.352c-3.398-0.257-6.209-1.5-8.426-3.723c-2.223-2.217-3.331-5.027-3.331-8.427V259.3
			c0.257-3.135,0.392-6.986,0.392-11.562c0-4.568,0-8.555,0-11.954v-6.27c0-3.135,0.196-6.987,0.588-11.562
			c0.392-4.568,0.717-8.555,0.98-11.954l0.784-6.271c-0.263-3.135-0.135-6.92,0.392-11.366c0.521-4.44,0.649-8.487,0.392-12.149
			l-0.392-5.095c-0.263-3.135-1.439-5.811-3.527-8.034c-1.876-1.986-4.275-2.979-7.194-2.979c-0.338,0-0.684,0.013-1.036,0.04
			l-5.487,0.392c-3.135,0.263-6.993,0.723-11.562,1.372c-4.574,0.655-8.426,1.243-11.562,1.764l-8.23,1.176
			c-3.135,0.527-6.993,1.115-11.562,1.764c-4.574,0.655-8.426,1.114-11.562,1.372l-9.014,0.392
			c-3.398,0.263-6.013,1.702-7.838,4.311c-1.831,2.615-2.743,5.358-2.743,8.23l0.784,6.271c0.521,3.135,1.041,6.993,1.568,11.562
			c0.521,4.575,1.041,8.426,1.567,11.562l0.784,8.23c0.257,3.135,0.588,6.993,0.979,11.562c0.392,4.575,0.717,8.561,0.98,11.954
			l0.392,7.838c0.257,3.136,0.521,6.994,0.784,11.562c0.257,4.575,0.649,8.562,1.176,11.954l1.567,8.622
			c0,3.398-0.784,6.209-2.352,8.426c-1.567,2.224-4.054,3.467-7.446,3.724l-2.743,0.392c-3.136,0-6.014-0.979-8.623-2.939
			c-2.615-1.959-4.182-4.635-4.703-8.034l-0.784-3.919c-0.526-3.136-0.979-6.987-1.372-11.562c-0.392-4.568-0.723-8.426-0.98-11.562
			l-0.392-5.095c-0.264-3.393-0.527-7.379-0.784-11.953c-0.263-4.568-0.655-8.427-1.176-11.562l-0.784-5.487
			c-0.526-3.135-0.98-6.987-1.372-11.562c-0.392-4.568-0.851-8.426-1.372-11.562l-0.784-5.095
			c-0.526-3.135-1.047-6.987-1.567-11.562c-0.527-4.568-0.919-8.426-1.176-11.562l-0.784-6.271
			c-0.526-3.393-0.784-7.379-0.784-11.954c0-4.568-0.263-8.426-0.784-11.562l-0.392-5.879c-0.263-3.135-0.655-6.987-1.176-11.562
			c-0.526-4.568-1.047-8.426-1.567-11.562l-1.176-5.487c-0.784-3.135-1.439-6.987-1.96-11.562
			c-0.526-4.568-0.784-8.426-0.784-11.562l-0.392-6.271c-0.264-3.393-0.527-7.312-0.784-11.757
			c-0.263-4.44-0.655-8.359-1.176-11.758L12,47.272c0-2.872,0.784-5.615,2.352-8.23c1.568-2.609,4.176-4.048,7.838-4.311
			l2.744-0.392c3.393,0,6.332,0.918,8.818,2.744c2.48,1.831,3.852,4.574,4.115,8.23l0.392,3.135
			c0.257,3.399,0.588,7.318,0.979,11.758c0.392,4.446,0.845,8.365,1.372,11.757l0.392,3.919c0.521,3.135,0.98,6.993,1.372,11.562
			c0.392,4.574,0.845,8.561,1.372,11.954l0.784,4.311c0.257,3.398,0.649,7.318,1.176,11.757c0.521,4.446,1.041,8.365,1.568,11.758
			l0.392,3.527c0.521,3.662,2.021,6.338,4.507,8.034c2.48,1.702,5.419,2.547,8.818,2.547l7.447-0.784
			c3.135-0.521,6.987-0.98,11.562-1.372c4.568-0.392,8.555-0.845,11.954-1.372l8.622-1.176c3.393-0.521,7.312-0.979,11.757-1.372
			c4.44-0.392,8.359-0.845,11.758-1.372l9.406-0.784c3.136-0.257,5.94-1.629,8.426-4.115c2.48-2.48,3.724-5.419,3.724-8.818v-5.095
			c0-3.136,0-6.987,0-11.562c0-4.568,0.128-8.555,0.392-11.954l0.392-5.879c0.257-3.135,0.325-6.987,0.196-11.562
			c-0.135-4.568-0.067-8.555,0.196-11.954v-7.446c0-3.135,0.062-6.987,0.196-11.562c0.128-4.568,0.325-8.426,0.588-11.562
			l0.392-7.839c0.257-3.392,1.696-6.203,4.312-8.426c2.608-2.217,5.487-3.332,8.622-3.332H164.064 M164.064,0h-3.135
			c-5.961,0-11.63,2.14-16.393,6.188c-5.064,4.304-8.006,10.066-8.506,16.662l-0.012,0.154l-0.007,0.155l-0.382,7.642
			c-0.272,3.308-0.477,7.35-0.608,12.02c-0.133,4.522-0.201,8.531-0.201,11.898v7c-0.267,3.718-0.331,8.006-0.19,12.754
			c0.115,4.078,0.061,7.524-0.161,10.226l-0.007,0.091l-0.006,0.091l-0.388,5.817c-0.28,3.649-0.422,7.96-0.422,12.814v11.562v5.095
			c0,0.043-0.001,0.076-0.003,0.101c-0.033,0.045-0.097,0.123-0.206,0.232c-0.281,0.281-0.668,0.62-0.922,0.641l-9.42,0.785
			l-0.422,0.035l-0.418,0.065c-3.065,0.474-6.758,0.904-10.977,1.276c-4.609,0.407-8.788,0.894-12.422,1.449l-8.523,1.162
			l-0.108,0.015l-0.108,0.017c-3.052,0.473-6.8,0.902-11.142,1.274c-4.663,0.399-8.744,0.88-12.136,1.43l-6.333,0.667
			c-0.406-0.026-0.711-0.084-0.94-0.151L59.2,125.9l-0.029-0.259l-0.04-0.258c-0.493-3.174-1-6.98-1.507-11.312
			c-0.506-4.271-0.885-8.056-1.128-11.268l-0.047-0.624l-0.112-0.616l-0.755-4.155c-0.464-3.019-0.884-6.714-1.25-10.987
			c-0.4-4.661-0.879-8.73-1.425-12.106l-0.354-3.544l-0.032-0.326l-0.05-0.323c-0.474-3.054-0.904-6.745-1.276-10.97
			c-0.426-4.83-0.733-8.52-0.967-11.609l-0.022-0.292l-0.036-0.291l-0.358-2.864c-0.747-8.869-5.254-13.955-8.931-16.668
			c-4.606-3.382-9.962-5.088-15.943-5.088h-0.853l-0.845,0.121l-2.387,0.341c-7.325,0.657-13.271,4.217-16.783,10.06
			C1.366,37.366,0,42.211,0,47.272v1.051l0.183,1.035l1.151,6.523c0.453,2.992,0.803,6.531,1.039,10.522
			c0.252,4.363,0.52,8.367,0.792,11.888l0.363,5.822c0.021,3.537,0.31,7.754,0.862,12.543c0.57,5.016,1.287,9.241,2.188,12.891
			l1.076,5.019c0.464,2.836,0.948,6.434,1.44,10.7c0.499,4.383,0.879,8.118,1.13,11.089l0.385,5.777l0.04,0.586l0.096,0.58
			c0.413,2.485,0.622,5.713,0.622,9.596c0,5.188,0.293,9.642,0.897,13.61l0.732,5.853c0.268,3.215,0.668,7.149,1.193,11.698
			c0.546,4.803,1.084,8.765,1.64,12.09l0.772,5.016l0.011,0.07l0.012,0.07c0.47,2.829,0.891,6.402,1.253,10.622
			c0.42,4.907,0.9,8.957,1.468,12.371l0.764,5.349l0.019,0.134l0.022,0.134c0.448,2.699,0.796,6.161,1.034,10.288
			c0.255,4.545,0.525,8.652,0.8,12.192l0.391,5.085l0.002,0.03l0.002,0.031c0.258,3.147,0.59,7.021,0.984,11.606
			c0.427,4.986,0.916,9.082,1.493,12.521l0.031,0.184l0.037,0.184l0.738,3.69c1.051,6.369,4.269,11.728,9.32,15.513
			c4.643,3.487,10.116,5.336,15.818,5.336h0.852l0.844-0.12l2.402-0.343c8.591-0.786,13.382-5.168,15.899-8.739
			c3.011-4.257,4.543-9.423,4.543-15.339v-1.082l-0.193-1.064l-1.539-8.462c-0.453-2.959-0.799-6.539-1.03-10.642
			c-0.261-4.515-0.526-8.436-0.79-11.676l-0.382-7.648l-0.008-0.165l-0.013-0.164c-0.284-3.665-0.617-7.719-0.988-12.051
			l-0.034-0.392c-0.375-4.379-0.693-8.091-0.942-11.124l-0.006-0.08l-0.008-0.079l-0.784-8.23l-0.041-0.426l-0.071-0.422
			c-0.484-2.881-0.981-6.559-1.479-10.931c-0.549-4.766-1.077-8.665-1.612-11.926l-0.612-4.899c0.02-0.071,0.049-0.154,0.089-0.248
			l7.978-0.347l0.23-0.01l0.229-0.019c3.375-0.277,7.392-0.752,12.282-1.453c4.586-0.651,8.526-1.252,11.702-1.784l8.086-1.155
			l0.134-0.019l0.134-0.022c3.043-0.505,6.845-1.085,11.298-1.723c4.304-0.611,7.939-1.045,10.792-1.287l4.359-0.312l0.377,4.9
			c0.201,2.903,0.086,6.226-0.342,9.877c-0.556,4.688-0.729,8.774-0.525,12.427l-0.64,5.118l-0.035,0.28l-0.022,0.282
			c-0.278,3.598-0.605,7.586-0.972,11.854c-0.425,4.967-0.632,9.084-0.632,12.587v6.27v11.954c0,4.175-0.118,7.735-0.352,10.581
			l-0.04,0.489v0.491v3.919c0,6.598,2.371,12.449,6.857,16.923c4.214,4.226,9.753,6.721,15.996,7.192l0.452,0.034h0.453h2.352
			c4.065,0,10.186-1.146,16.255-6.604c5.168-4.66,7.895-10.588,7.895-17.153v-5.409c0.264-3.509,0.327-7.562,0.191-12.368
			c-0.122-4.12-0.066-7.711,0.165-10.689l0.005-0.064l0.004-0.064l0.385-5.789c0.282-3.477,0.425-7.665,0.425-12.45
			c0-3.961,0.216-7.365,0.642-10.117l0.02-0.125l0.017-0.125l0.784-5.879l0.045-0.34l0.026-0.341
			c0.27-3.566,0.478-7.773,0.617-12.505c0.136-4.817,0.201-8.709,0.201-11.915v-6.663v-11.562c0-4.27,0.12-7.979,0.356-11.025
			l0.007-0.09l0.006-0.09l0.392-6.271l0.023-0.374v-0.375c0-2.774,0.183-6.32,0.544-10.538c0.44-5.124,0.511-9.766,0.212-13.798
			l-0.364-5.824V97.634c0-4.244,0.118-7.795,0.35-10.556l0.006-0.076l0.006-0.076l0.39-5.463c0.282-3.724,0.424-8.041,0.424-12.832
			V57.071v-5.095c0-3.405,0.064-7.308,0.19-11.6c0.114-4.033,0.39-7.368,0.819-9.927l0.083-0.493l0.042-0.498l0.392-4.703
			l0.042-0.498v-0.5c0-5.689-1.62-10.82-4.815-15.25C177.856,3.016,171.551,0,164.064,0L164.064,0z"/>
	</g>
	<g>
		<path fill="#FFFFFF" d="M335.333,300.573c-5.56,0-10.021-1.647-13.263-4.898l-1.43-1.43c-3.401-2.087-6.794-4.955-10.098-8.536
			c-2.956-3.198-5.56-5.808-7.739-7.754l-4.579-3.815c-2.723-2.178-5.811-4.923-9.181-8.16c-3.129-3-5.963-5.768-8.419-8.223
			l-4.459-4.087c-2.69-2.159-5.74-4.873-9.068-8.069c-3.176-3.046-6.012-5.815-8.428-8.23l-4.965-4.583
			c-2.395-2.127-5.31-4.778-8.667-7.88c-3.284-3.03-6.159-5.643-8.54-7.764l-5.02-4.631c-2.676-2.146-5.761-4.832-9.172-7.984
			c-3.462-3.194-6.33-6.06-8.522-8.517l-4.188-4.188c-2.147-2.147-5.001-4.626-8.483-7.367c-3.699-2.901-6.813-5.474-9.25-7.642
			l-5.329-4.567c-6.035-4.693-7.306-9.804-7.306-13.277c0-5.233,4.063-9.433,7.12-12.136c3.409-3.016,6.862-6.023,10.27-8.945
			l1.925-2.31l0.336-0.299c2.193-1.947,4.818-4.576,7.805-7.812c2.898-3.136,5.51-6.009,7.768-8.544l2.709-3.096
			c2.159-2.432,4.917-5.392,8.226-8.831c3.361-3.495,6.145-6.342,8.507-8.705l3.261-3.261l0.133-0.118
			c2.193-1.947,4.819-4.576,7.805-7.812c3.272-3.541,6.018-6.417,8.397-8.796l3.919-3.919c2.049-2.049,4.63-4.76,7.671-8.056
			c3.279-3.548,6.191-6.462,8.9-8.907l3.81-3.809c2.412-2.412,5.151-5.217,8.141-8.335c2.997-3.121,5.583-5.899,7.689-8.264
			l3.548-3.943c2.107-2.373,4.865-5.333,8.17-8.768c3.324-3.455,5.947-6.143,8.014-8.211l3.919-4.312l0.101-0.101
			c3.458-3.458,7.771-5.285,12.473-5.285c4.819,0,9.206,2.041,12.687,5.901l0.181,0.201l1.106,1.475
			c3.246,3.408,4.959,7.73,4.959,12.531c0,4.26-1.498,8.291-4.451,11.98l-0.207,0.259l-0.897,0.897
			c-2.193,2.457-4.909,5.37-8.075,8.661c-3.174,3.299-5.811,6.128-7.837,8.407l-2.466,2.878l-0.163,0.163
			c-2.292,2.292-4.957,5.02-8.146,8.34c-2.976,3.104-5.708,5.903-8.121,8.319l-1.749,2.099c-2.243,2.794-5.176,5.938-8.717,9.345
			c-3.43,3.301-6.39,6.059-8.798,8.197l-0.146,0.13l-3.387,2.634l-8.162,8.162c-3.188,3.188-5.809,5.936-7.79,8.167l-0.118,0.133
			l-3.14,3.139c-2.301,2.582-4.923,5.465-7.797,8.575c-3.235,3.507-5.774,6.299-7.758,8.533l-0.652,0.717l3.089-0.441
			c3.292-0.544,7.317-1.021,11.964-1.42c4.572-0.392,8.434-0.717,11.572-0.98l0.241-0.015l8.919-0.388
			c3.492-0.264,7.517-0.528,11.964-0.784c4.44-0.25,8.275-0.51,11.405-0.772l10.64-0.789c0.444-0.037,0.93-0.057,1.41-0.057
			c4.25,0,8.103,1.514,11.453,4.501c3.658,3.28,5.707,7.317,6.101,12.011l0.021,0.25v4.17c0,4.684-1.316,8.848-3.911,12.375
			c-2.005,2.722-5.824,6.065-12.642,6.544l-0.21,0.015h-0.897c-3.244,0.52-7.181,0.912-11.713,1.167
			c-4.417,0.254-8.258,0.515-11.408,0.773l-0.245,0.02h-2.146c-3.515,0.519-7.628,0.848-12.236,0.977
			c-4.44,0.131-8.225,0.323-11.239,0.57l-0.245,0.02h-2.206c-3.261,0-7.225,0.065-11.784,0.194
			c-4.136,0.122-7.821,0.188-10.964,0.197l0.218,0.218c2.416,2.154,5.298,4.775,8.57,7.793c3.292,3.043,6.15,5.642,8.5,7.728
			l2.877,2.467l0.163,0.163c2.312,2.312,5.154,5.024,8.448,8.063c3.376,3.12,6.188,5.923,8.367,8.342l2.618,2.244l0.163,0.163
			c2.309,2.309,5.151,5.022,8.448,8.063c3.277,3.029,6.2,5.571,8.69,7.561l0.124,0.099l3.645,3.24
			c2.417,2.151,5.344,4.812,8.704,7.912c3.526,3.259,6.433,6.168,8.644,8.65l2.866,3.276l0.084,0.104
			c1.843,2.308,4.408,4.864,7.625,7.601c3.537,3.015,6.535,5.613,8.915,7.727l4.364,3.967c3.841,3.461,5.882,7.849,5.882,12.669
			c0,4.858-1.907,8.973-5.521,11.926l-1.331,1.331C344.95,298.927,340.622,300.573,335.333,300.573z"/>
		<path fill="#F7C22F" d="M329.846,12.392c3.135,0,5.878,1.311,8.23,3.919l1.176,1.568c2.352,2.352,3.527,5.229,3.527,8.622
			c0,2.878-1.047,5.622-3.135,8.23l-0.784,0.784c-2.095,2.352-4.771,5.229-8.035,8.622c-3.27,3.399-5.946,6.271-8.034,8.622
			l-2.352,2.744c-2.352,2.352-5.095,5.162-8.23,8.426c-3.135,3.27-5.878,6.075-8.23,8.426l-1.959,2.352
			c-2.095,2.615-4.838,5.554-8.23,8.818c-3.398,3.271-6.271,5.946-8.622,8.035l-3.527,2.743c-2.352,2.352-5.163,5.163-8.426,8.426
			c-3.27,3.27-5.946,6.075-8.034,8.426l-3.136,3.135c-2.094,2.352-4.703,5.23-7.838,8.623c-3.135,3.398-5.75,6.271-7.838,8.622
			l-3.919,4.311c-1.831,1.831-2.744,3.398-2.744,4.703c0,1.311,0.521,2.027,1.568,2.155c1.041,0.135,2.609,0.196,4.703,0.196
			l8.23-1.176c3.136-0.521,6.987-0.98,11.562-1.372c4.568-0.392,8.426-0.716,11.562-0.979l9.014-0.392
			c3.393-0.257,7.379-0.521,11.953-0.784c4.568-0.257,8.426-0.521,11.562-0.784l10.582-0.784c0.326-0.027,0.648-0.04,0.966-0.04
			c2.749,0,5.232,0.993,7.46,2.979c2.48,2.223,3.852,4.899,4.115,8.035v3.919c0,3.398-0.918,6.338-2.744,8.818
			c-1.831,2.486-4.574,3.858-8.23,4.115h-1.176c-3.135,0.527-6.994,0.919-11.562,1.176c-4.575,0.264-8.426,0.527-11.562,0.784
			h-2.351c-3.399,0.526-7.385,0.851-11.954,0.979c-4.575,0.135-8.426,0.331-11.562,0.588h-1.96c-3.398,0-7.385,0.067-11.953,0.196
			c-4.575,0.134-8.426,0.196-11.562,0.196h-2.351c-3.919,0.526-5.879,1.702-5.879,3.527c0,1.567,0.913,3.135,2.743,4.703
			l2.352,2.351c2.352,2.095,5.224,4.703,8.623,7.838c3.393,3.136,6.271,5.75,8.622,7.838l2.743,2.352
			c2.352,2.352,5.224,5.095,8.623,8.23c3.393,3.135,6.136,5.879,8.23,8.23l2.744,2.352c2.352,2.352,5.224,5.095,8.622,8.23
			c3.393,3.135,6.399,5.75,9.014,7.838l3.527,3.135c2.352,2.094,5.224,4.703,8.622,7.838c3.393,3.136,6.136,5.879,8.23,8.23
			l2.743,3.136c2.088,2.614,4.899,5.426,8.426,8.426c3.527,3.007,6.467,5.555,8.818,7.643l4.311,3.92
			c2.609,2.351,3.919,5.095,3.919,8.229c0,3.136-1.176,5.622-3.527,7.446l-1.568,1.568c-2.094,2.094-4.966,3.135-8.622,3.135
			c-3.919,0-6.926-1.041-9.014-3.135l-1.959-1.96c-3.136-1.825-6.271-4.439-9.406-7.838c-3.135-3.393-5.879-6.137-8.23-8.23
			l-4.703-3.919c-2.615-2.089-5.554-4.703-8.818-7.839c-3.27-3.135-6.075-5.879-8.426-8.23l-4.703-4.311
			c-2.615-2.088-5.554-4.703-8.818-7.838c-3.27-3.137-6.075-5.879-8.426-8.23l-5.095-4.704c-2.352-2.088-5.229-4.703-8.622-7.838
			c-3.398-3.135-6.271-5.744-8.622-7.838l-5.095-4.703c-2.615-2.088-5.622-4.703-9.014-7.838c-3.398-3.135-6.142-5.878-8.23-8.23
			l-4.311-4.311c-2.352-2.352-5.358-4.96-9.014-7.838c-3.662-2.872-6.663-5.352-9.014-7.447l-5.487-4.703
			c-3.399-2.609-5.095-5.487-5.095-8.623c0-2.088,1.696-4.636,5.095-7.642c3.393-3.001,6.919-6.075,10.582-9.21l1.959-2.351
			c2.352-2.088,5.095-4.832,8.23-8.23c3.135-3.393,5.744-6.271,7.838-8.622l2.744-3.136c2.088-2.351,4.764-5.223,8.034-8.622
			c3.264-3.393,6.075-6.271,8.426-8.622l3.135-3.135c2.352-2.088,5.095-4.832,8.23-8.23c3.135-3.393,5.878-6.271,8.23-8.622
			l3.919-3.919c2.088-2.088,4.703-4.832,7.838-8.23c3.135-3.393,6.007-6.271,8.622-8.623l3.919-3.919
			c2.351-2.352,5.095-5.156,8.23-8.426c3.135-3.264,5.744-6.075,7.838-8.426l3.527-3.919c2.088-2.352,4.764-5.224,8.034-8.623
			c3.264-3.393,5.94-6.136,8.035-8.23l3.919-4.311C323.967,13.568,326.71,12.392,329.846,12.392 M329.846,0.392
			c-6.329,0-12.108,2.435-16.716,7.042l-0.202,0.202l-0.192,0.211l-3.729,4.102c-2.077,2.08-4.695,4.763-7.993,8.191
			c-3.346,3.478-6.148,6.486-8.331,8.943l-3.502,3.891l-0.021,0.023l-0.021,0.023c-2.057,2.31-4.591,5.033-7.531,8.095
			c-2.969,3.096-5.679,5.871-8.062,8.254l-3.702,3.701c-2.812,2.545-5.813,5.552-9.167,9.181c-2.995,3.246-5.519,5.897-7.511,7.889
			l-3.919,3.919c-2.435,2.436-5.234,5.367-8.558,8.963c-2.859,3.099-5.342,5.587-7.386,7.402l-0.266,0.236l-0.251,0.251
			l-3.135,3.135c-2.39,2.39-5.2,5.265-8.589,8.788c-3.364,3.497-6.176,6.516-8.359,8.973l-0.029,0.033l-0.029,0.033l-2.705,3.092
			c-2.228,2.501-4.804,5.335-7.659,8.423c-2.859,3.099-5.341,5.587-7.386,7.402l-0.673,0.598l-0.577,0.692l-1.315,1.578
			c-3.307,2.838-6.652,5.754-9.958,8.678c-2.261,2-9.145,8.088-9.145,16.63c0,4.792,1.658,11.765,9.505,17.922l5.183,4.442
			c2.523,2.243,5.72,4.884,9.503,7.851c3.279,2.581,5.954,4.901,7.934,6.881l4.069,4.069c2.331,2.6,5.22,5.484,8.82,8.806
			c3.438,3.177,6.573,5.909,9.319,8.12l4.788,4.42l0.079,0.072l0.08,0.071c2.355,2.097,5.203,4.687,8.466,7.697
			c3.358,3.104,6.289,5.768,8.703,7.914l4.836,4.465c2.426,2.423,5.262,5.192,8.434,8.234c3.437,3.301,6.487,6.018,9.308,8.291
			l4.221,3.868c2.466,2.463,5.298,5.229,8.421,8.222c3.472,3.336,6.682,6.188,9.533,8.473l4.452,3.71
			c2.021,1.812,4.462,4.263,7.258,7.288c3.473,3.765,7.08,6.849,10.739,9.184l0.954,0.954c3.02,3.027,8.518,6.65,17.5,6.65
			c8.643,0,14.073-3.615,17.106-6.648l1.138-1.139c4.826-4.067,7.472-9.843,7.472-16.362c0-6.56-2.72-12.481-7.867-17.127l-4.29-3.9
			l-0.052-0.048l-0.053-0.048c-2.41-2.14-5.438-4.765-9.001-7.801c-2.936-2.497-5.231-4.776-6.835-6.783l-0.167-0.21l-0.177-0.202
			l-2.743-3.136l-0.035-0.04l-0.035-0.039c-2.373-2.664-5.332-5.629-9.047-9.062c-3.397-3.133-6.351-5.818-8.787-7.988l-3.535-3.142
			l-0.236-0.21l-0.247-0.197c-2.378-1.899-5.19-4.347-8.358-7.275c-3.247-2.995-6.03-5.652-8.281-7.903l-0.326-0.326l-0.35-0.3
			l-2.154-1.846c-2.277-2.505-5.061-5.273-8.484-8.437c-3.244-2.992-6.027-5.648-8.282-7.903l-0.325-0.326l-0.35-0.3l-2.663-2.283
			c-1.754-1.559-3.797-3.408-6.096-5.517c2.846-0.061,5.396-0.092,7.611-0.092h1.96h0.492l0.49-0.04
			c2.911-0.239,6.589-0.425,10.934-0.553c4.637-0.13,8.834-0.458,12.482-0.974h1.469h0.492l0.49-0.04
			c3.104-0.255,6.896-0.512,11.271-0.764c4.571-0.257,8.458-0.636,11.829-1.156h0.218h0.421l0.42-0.029
			c9.104-0.64,14.297-5.23,17.051-8.969c3.374-4.584,5.082-9.944,5.082-15.935v-3.919v-0.503l-0.042-0.501
			c-0.519-6.182-3.307-11.703-8.063-15.966c-4.443-3.961-9.784-6.044-15.469-6.044c-0.624,0-1.259,0.025-1.888,0.075l-10.547,0.782
			l-0.059,0.004l-0.058,0.005c-3.076,0.258-6.855,0.514-11.233,0.761c-4.461,0.257-8.489,0.52-11.991,0.784l-8.823,0.384
			l-0.241,0.011l-0.241,0.02c-2.96,0.249-6.562,0.552-10.797,0.914c1.884-2.058,3.641-3.999,5.245-5.798l2.891-2.891l0.252-0.252
			l0.237-0.267c1.903-2.144,4.442-4.804,7.546-7.908l7.897-7.898l2.938-2.284l0.309-0.24l0.292-0.26
			c2.467-2.191,5.486-5.003,8.975-8.361c3.758-3.616,6.77-6.846,9.199-9.868l1.542-1.851c2.396-2.403,5.091-5.166,8.019-8.219
			c3.151-3.281,5.789-5.98,8.054-8.246l0.326-0.326l0.3-0.35l2.279-2.659c1.97-2.215,4.541-4.972,7.643-8.196
			c3.164-3.288,5.892-6.212,8.113-8.697l0.543-0.543l0.468-0.468l0.414-0.518c3.773-4.713,5.767-10.152,5.767-15.729
			c0-6.251-2.195-11.899-6.358-16.397l-0.745-0.993l-0.325-0.433l-0.363-0.402C342.338,3.118,336.411,0.392,329.846,0.392
			L329.846,0.392z"/>
	</g>
	<g>
		<path fill="#FFFFFF" d="M484.258,302.141c-3.931,0-7.517-1.195-10.657-3.554c-2.994-2.241-5.119-5.108-6.312-8.52l-1.021-2.38
			c-1.703-3.44-3.201-7.515-4.455-12.111c-1.099-4.028-2.268-7.543-3.475-10.445l-1.921-4.609c-1.389-3.057-2.844-6.936-4.325-11.53
			c-1.431-4.415-2.669-8.191-3.707-11.317l-1.586-5.152c-1.043-3.123-2.28-6.826-3.704-11.109
			c-1.359-4.073-2.667-7.505-3.886-10.194l-0.106-0.248l-2.352-5.879c-1.295-3.096-2.739-6.835-4.379-11.349
			c-1.683-4.627-2.791-8.571-3.383-12.046l-1.123-4.863c-0.739-2.951-1.789-6.526-3.208-10.93c-1.357-4.188-2.661-7.669-3.87-10.338
			l-1.939-4.646c-0.549-1.023-1.351-1.858-2.448-2.546c-1.135-0.707-2.245-1.042-3.473-1.042c-0.478,0-0.802,0.044-0.991,0.082
			c-0.314,0.065-0.714,0.171-1.167,0.312l-7.529,3.389c-1.827,0.832-3.564,2.436-5.142,4.758c-1.626,2.394-2.537,4.654-2.707,6.722
			l-0.372,5.591c-0.008,3.255-0.213,7.247-0.609,11.871c-0.375,4.381-0.566,8.231-0.566,11.441v5.879
			c0,3.209-0.131,7.102-0.401,11.899c-0.257,4.473-0.523,8.531-0.792,12.069l-0.013,0.17l-0.82,6.149l-0.017,0.1
			c-0.476,2.835-0.778,6.448-0.899,10.738c-0.139,4.708-0.478,8.887-1.007,12.434l-0.375,5.629
			c-0.385,5.361-2.425,9.603-6.064,12.636c-3.447,2.873-7.641,4.33-12.463,4.33h-0.332l-3.553-0.395
			c-7.041-0.114-10.711-3.594-12.556-6.521c-2.172-3.438-3.276-7.351-3.276-11.626v-0.272l0.437-4.803l0.036-0.219
			c0.483-2.909,0.854-6.585,1.104-10.925c0.257-4.564,0.382-8.236,0.382-11.216v-4.311c0-3.264,0.135-7.207,0.402-11.72
			c0.249-4.29,0.514-8.405,0.789-12.225l0.392-5.484c0.241-3.181,0.555-6.94,0.987-11.856c0.404-4.576,0.857-8.478,1.384-11.918
			l0.374-4.868c0.258-3.403,0.59-7.409,0.984-12.006c0.375-4.376,0.566-8.094,0.566-11.049v-5.487c0-3.533,0.135-7.67,0.402-12.298
			c0.265-4.713,0.68-8.789,1.231-12.107l0.799-5.971c0.483-2.913,0.855-6.588,1.104-10.924c0.253-4.494,0.382-8.402,0.382-11.609
			V61.578c0-2.85,0.298-5.54,0.886-7.999l0.723-5.062c0.239-2.451,0.424-5.259,0.551-8.349c0.134-3.4,0.415-6.692,0.833-9.772
			c0.482-3.528,1.291-6.468,2.473-8.989c1.888-4.056,5.513-6.392,9.939-6.392c2.5,0,4.984,0.608,7.386,1.809l0.484,0.242
			l1.657,1.243l10.008,5.476c4.05,2.225,7.504,4.113,10.377,5.678l2.801,1.599l10.337,5.656c4.006,2.2,7.429,4.072,10.284,5.627
			l2.355,1.178l10.484,5.736c3.951,2.17,7.334,4.021,10.165,5.563l3.53,1.568l0.215,0.117c2.773,1.515,6.133,3.388,10.269,5.728
			c3.916,2.22,7.43,4.315,10.449,6.229l0.14,0.089l2.587,1.848c2.883,1.584,6.232,3.558,9.961,5.871
			c3.674,2.283,6.937,4.203,9.701,5.708l2.964,1.694c5.644,3.392,6.828,7.653,6.828,10.629c0,2.289-0.78,7.848-7.909,10.603
			l-0.602,0.3l-0.098,0.044c-2.861,1.303-6.367,2.922-10.52,4.871c-4.133,1.936-7.478,3.486-10.206,4.729l-1.175,0.783
			l-22.125,10.058l-1.773,0.709c-2.829,1.558-3.988,3.404-3.988,6.312c0,0.06,0.012,0.603,0.422,1.859l1.742,4.355l0.106,0.642
			c0.45,2.712,1.458,6.06,2.993,9.948c1.73,4.398,3.189,8.014,4.462,11.061l0.086,0.205l2.006,6.018
			c1.081,2.993,2.347,6.725,3.763,11.094c1.429,4.431,2.665,8.195,3.707,11.315l1.568,4.706c1.053,3.171,2.26,7.06,3.59,11.564
			c1.262,4.301,2.408,7.871,3.41,10.618l2.015,6.036c0.99,2.984,2.254,6.585,3.865,11.016c1.522,4.188,2.912,7.666,4.132,10.338
			l0.112,0.263l2.302,5.757c1.373,3.045,2.813,6.822,4.284,11.229c1.428,4.293,2.664,7.998,3.707,11.121l2.378,6.742
			c0.471,1.436,0.69,3.275,0.69,5.788c0,3.479-0.966,6.79-2.87,9.84c-2.14,3.421-5.431,5.688-9.53,6.571l-2.429,0.693
			C488.137,301.933,486.453,302.141,484.258,302.141z M399.334,110.244c0.007,0.462,0.032,0.846,0.066,1.16
			c0.083-0.039,0.432-0.209,0.432-0.209l10.189-4.703c2.784-1.264,6.224-2.857,10.551-4.884c3.856-1.809,7.417-3.458,10.583-4.9
			l10.501-5.056l-8.034-4.822c-2.707-1.716-6-3.516-9.788-5.35c-4.163-2.012-7.8-3.999-10.812-5.907l-9.125-4.943
			c-0.846-0.414-1.321-0.489-1.492-0.501c-0.098,0.252-0.231,0.697-0.33,1.417v6.69c0,3.594-0.277,7.844-0.822,12.632
			c-0.518,4.492-0.906,8.316-1.157,11.374L399.334,110.244z"/>
		<path fill="#F7C22F" d="M378.439,21.014c1.568,0,3.135,0.392,4.703,1.176l1.567,1.176c2.872,1.567,6.332,3.466,10.386,5.683
			c4.047,2.223,7.507,4.115,10.386,5.683l2.743,1.567c2.872,1.568,6.332,3.466,10.386,5.683c4.047,2.223,7.507,4.115,10.386,5.683
			l2.352,1.176c2.872,1.568,6.332,3.466,10.386,5.683c4.048,2.223,7.508,4.115,10.386,5.683l3.527,1.567
			c2.872,1.568,6.271,3.466,10.189,5.683c3.92,2.223,7.312,4.25,10.19,6.075l2.743,1.959c2.872,1.568,6.203,3.527,9.994,5.879
			c3.784,2.352,7.115,4.311,9.994,5.879l2.743,1.567c2.608,1.568,3.919,3.399,3.919,5.487c0,2.352-1.439,4.054-4.311,5.095
			l-0.784,0.392c-2.878,1.311-6.405,2.939-10.582,4.899c-4.183,1.96-7.71,3.595-10.582,4.899l-1.176,0.784
			c-2.878,1.311-6.466,2.939-10.777,4.899s-7.906,3.595-10.778,4.899l-1.959,0.784c-4.966,2.615-7.446,6.534-7.446,11.758
			c0,1.047,0.257,2.352,0.784,3.919l1.567,3.919c0.521,3.135,1.629,6.858,3.332,11.169c1.696,4.311,3.197,8.035,4.507,11.17
			l1.96,5.879c1.041,2.878,2.284,6.534,3.723,10.974c1.434,4.446,2.677,8.23,3.724,11.366l1.567,4.703
			c1.041,3.135,2.217,6.926,3.527,11.366c1.305,4.446,2.48,8.102,3.527,10.974l1.96,5.879c1.041,3.135,2.352,6.858,3.919,11.169
			c1.567,4.312,3.001,7.906,4.312,10.778l2.352,5.879c1.304,2.878,2.676,6.467,4.114,10.777c1.434,4.312,2.677,8.035,3.724,11.17
			l2.352,6.663c0.257,0.783,0.392,2.094,0.392,3.919c0,2.352-0.655,4.574-1.959,6.662c-1.311,2.095-3.271,3.399-5.879,3.92
			l-2.743,0.783c-0.784,0.264-1.96,0.393-3.527,0.393c-2.615,0-4.967-0.784-7.055-2.352c-2.095-1.568-3.527-3.527-4.312-5.879
			l-1.176-2.743c-1.567-3.136-2.939-6.859-4.115-11.17c-1.176-4.312-2.419-8.034-3.723-11.17l-1.96-4.703
			c-1.311-2.871-2.682-6.527-4.115-10.974c-1.439-4.439-2.682-8.229-3.723-11.366l-1.567-5.094
			c-1.047-3.135-2.291-6.858-3.724-11.169c-1.439-4.312-2.811-7.9-4.115-10.778l-2.352-5.879c-1.311-3.135-2.744-6.858-4.311-11.17
			c-1.568-4.311-2.615-8.034-3.136-11.169l-1.176-5.095c-0.784-3.136-1.898-6.92-3.331-11.366c-1.439-4.44-2.811-8.096-4.115-10.974
			l-1.959-4.703c-1.047-2.088-2.615-3.785-4.703-5.095c-2.094-1.304-4.311-1.959-6.663-1.959c-0.784,0-1.506,0.067-2.155,0.196
			c-0.655,0.135-1.372,0.331-2.156,0.588l-7.838,3.527c-2.878,1.311-5.426,3.595-7.643,6.859c-2.223,3.27-3.466,6.466-3.723,9.602
			l-0.392,5.878c0,3.135-0.196,6.994-0.588,11.562c-0.392,4.575-0.588,8.561-0.588,11.954v5.879c0,3.135-0.135,6.993-0.392,11.562
			c-0.263,4.574-0.527,8.561-0.784,11.954l-0.784,5.879c-0.526,3.135-0.851,6.994-0.979,11.562
			c-0.135,4.574-0.459,8.561-0.98,11.953l-0.392,5.879c-0.263,3.661-1.567,6.466-3.919,8.426s-5.229,2.939-8.622,2.939l-3.527-0.392
			c-3.662,0-6.271-1.237-7.838-3.724c-1.568-2.48-2.352-5.291-2.352-8.426l0.392-4.312c0.521-3.136,0.912-6.987,1.176-11.562
			c0.257-4.568,0.392-8.426,0.392-11.562v-4.311c0-3.135,0.129-6.92,0.392-11.366c0.257-4.44,0.521-8.487,0.784-12.149l0.392-5.487
			c0.257-3.393,0.588-7.312,0.979-11.758c0.392-4.439,0.845-8.359,1.372-11.757l0.392-5.095c0.257-3.393,0.588-7.379,0.98-11.953
			c0.392-4.568,0.588-8.426,0.588-11.562v-5.487c0-3.393,0.128-7.379,0.392-11.953c0.257-4.568,0.649-8.426,1.176-11.562
			l0.784-5.878c0.521-3.135,0.913-6.987,1.176-11.562c0.257-4.568,0.392-8.555,0.392-11.954v-5.487V69.22c0-2.609,0-5.156,0-7.643
			c0-2.48,0.257-4.764,0.784-6.858l0.784-5.487c0.257-2.609,0.453-5.548,0.588-8.818c0.128-3.264,0.392-6.332,0.784-9.21
			c0.392-2.872,1.041-5.291,1.96-7.25C374.845,21.994,376.345,21.014,378.439,21.014 M398.427,117.818
			c1.041,0,2.352-0.392,3.919-1.176l10.189-4.703c2.872-1.304,6.399-2.939,10.582-4.899c4.176-1.959,7.704-3.588,10.582-4.899
			l10.582-5.095c3.135-1.041,4.703-2.744,4.703-5.095c0-2.088-1.439-3.919-4.311-5.487l-7.838-4.703
			c-2.878-1.825-6.338-3.724-10.386-5.683c-4.054-1.959-7.514-3.852-10.386-5.683l-9.406-5.095
			c-1.568-0.784-3.007-1.176-4.311-1.176c-3.662,0-5.75,2.352-6.271,7.055v7.055c0,3.398-0.263,7.385-0.784,11.953
			c-0.527,4.575-0.918,8.426-1.176,11.562l-0.784,8.23C393.333,115.209,395.029,117.818,398.427,117.818 M378.439,9.014
			c-6.756,0-12.508,3.692-15.386,9.875c-1.429,3.048-2.406,6.555-2.97,10.691c-0.446,3.275-0.743,6.759-0.885,10.362
			c-0.12,2.901-0.293,5.55-0.515,7.86l-0.667,4.665c-0.653,2.837-0.984,5.898-0.984,9.11v7.643v9.014v5.487
			c0,3.095-0.125,6.89-0.373,11.279c-0.236,4.108-0.584,7.569-1.033,10.271l-0.031,0.189l-0.025,0.19l-0.758,5.685
			c-0.587,3.558-1.009,7.704-1.288,12.667c-0.272,4.726-0.411,8.98-0.411,12.627v5.487c0,2.786-0.183,6.331-0.544,10.536
			c-0.438,5.11-0.752,8.946-0.99,12.071l-0.356,4.633c-0.532,3.512-0.989,7.467-1.396,12.072c-0.435,4.941-0.75,8.724-0.992,11.906
			l-0.002,0.026l-0.002,0.026l-0.392,5.487c-0.276,3.846-0.543,7.989-0.794,12.311c-0.273,4.615-0.412,8.678-0.412,12.06v4.311
			c0,2.826-0.125,6.489-0.373,10.888c-0.237,4.11-0.585,7.571-1.033,10.271l-0.073,0.437l-0.04,0.441l-0.392,4.312l-0.049,0.542
			v0.545c0,5.428,1.416,10.42,4.208,14.838c3.66,5.805,9.758,9.093,17.223,9.301l2.962,0.329l0.66,0.073h0.664
			c6.176,0,11.814-1.979,16.305-5.722c3.396-2.83,7.577-8.04,8.205-16.783l0.002-0.031l0.002-0.03l0.359-5.388
			c0.551-3.767,0.89-7.99,1.034-12.89c0.113-4.03,0.389-7.365,0.819-9.929l0.034-0.2l0.026-0.201l0.784-5.879l0.045-0.339
			l0.026-0.341c0.271-3.576,0.539-7.671,0.798-12.17c0.278-4.925,0.412-8.928,0.412-12.251v-5.879c0-3.04,0.183-6.717,0.544-10.929
			c0.403-4.697,0.615-8.789,0.631-12.173l0.357-5.367c0.1-1.001,0.68-2.307,1.683-3.781c0.918-1.353,1.866-2.3,2.673-2.675
			l7.133-3.209c0.037-0.011,0.071-0.02,0.103-0.028c0.019,0.006,0.108,0.037,0.278,0.143c0.126,0.079,0.2,0.139,0.245,0.185
			l1.684,4.042l0.071,0.17l0.076,0.168c1.117,2.465,2.339,5.735,3.63,9.72c1.345,4.171,2.382,7.701,3.08,10.475l1.072,4.645
			c0.661,3.789,1.85,8.018,3.629,12.911c1.658,4.562,3.125,8.362,4.481,11.611l2.317,5.793l0.1,0.251l0.111,0.246
			c1.134,2.501,2.366,5.739,3.662,9.624c1.41,4.242,2.64,7.926,3.68,11.037l1.525,4.957l0.039,0.125l0.042,0.125
			c1.1,3.314,2.344,7.112,3.697,11.287c1.553,4.818,3.036,8.773,4.527,12.064l1.887,4.528c1.105,2.658,2.191,5.929,3.222,9.711
			c1.337,4.903,2.949,9.288,4.792,13.042l0.883,2.059c1.604,4.464,4.399,8.21,8.312,11.141c4.132,3.101,9.062,4.745,14.247,4.745
			c2.785,0,5.022-0.288,7.003-0.905l2.174-0.621c5.626-1.263,10.162-4.437,13.146-9.205c2.515-4.025,3.786-8.405,3.786-13.026
			c0-3.21-0.305-5.572-0.989-7.657l-0.042-0.129l-0.044-0.127l-2.318-6.566c-1.038-3.11-2.27-6.797-3.687-11.059
			c-1.519-4.553-3.016-8.478-4.454-11.687l-2.257-5.641l-0.105-0.265l-0.119-0.26c-1.153-2.529-2.482-5.858-3.95-9.896
			c-1.593-4.38-2.838-7.929-3.809-10.851l-1.965-5.893l-0.053-0.158l-0.057-0.156c-0.958-2.627-2.063-6.074-3.287-10.243
			c-1.354-4.588-2.582-8.542-3.653-11.769l-1.572-4.715c-1.128-3.379-2.367-7.164-3.687-11.254
			c-1.429-4.411-2.708-8.182-3.807-11.227l-1.913-5.738l-0.141-0.421l-0.171-0.41c-1.256-3.005-2.699-6.583-4.412-10.938
			c-1.726-4.368-2.398-7.163-2.661-8.741l-0.213-1.283l-0.483-1.208l-1.419-3.548c-0.023-0.075-0.042-0.14-0.057-0.194
			c0.005-0.045,0.011-0.082,0.016-0.109c0.087-0.086,0.274-0.241,0.588-0.435l1.241-0.496l0.255-0.102l0.25-0.114l5.739-2.608
			l5.042-2.292l3.715-1.688c2.706-1.229,5.062-2.3,7.071-3.215l0.878-0.4l0.804-0.536l0.372-0.248
			c2.665-1.216,5.892-2.712,9.822-4.554c3.83-1.797,7.349-3.426,10.463-4.844l0.196-0.089l0.192-0.097l0.274-0.137
			c7.192-2.896,11.459-8.857,11.459-16.085c0-3.705-1.265-10.68-9.736-15.772l-0.114-0.068l-0.115-0.066l-2.743-1.567l-0.106-0.061
			l-0.107-0.059c-2.665-1.451-5.827-3.312-9.399-5.533c-3.692-2.29-7.026-4.258-9.93-5.863l-2.167-1.547l-0.27-0.192l-0.279-0.178
			c-3.102-1.966-6.7-4.112-10.697-6.378c-4.174-2.361-7.559-4.249-10.358-5.777l-0.43-0.234l-0.447-0.199l-3.084-1.37
			c-2.782-1.517-6.088-3.325-9.925-5.432l-5.125-2.805c-1.941-1.063-3.703-2.028-5.287-2.892l-0.19-0.104l-0.194-0.097l-2.164-1.082
			c-2.831-1.542-6.217-3.394-10.163-5.562l-5.097-2.789c-1.911-1.046-3.648-1.998-5.213-2.852l-2.643-1.51l-0.106-0.061
			l-0.107-0.059c-2.868-1.562-6.316-3.448-10.349-5.663l-4.94-2.704c-1.708-0.935-3.279-1.795-4.713-2.579l-0.876-0.657l-0.867-0.65
			l-0.969-0.484C385.266,9.836,381.878,9.014,378.439,9.014L378.439,9.014z M406.167,101.662c0.245-2.801,0.597-6.193,1.047-10.102
			c0.508-4.461,0.787-8.353,0.849-11.851l1.925,1.043c3.204,2.018,6.886,4.026,11.239,6.13c2.958,1.432,5.584,2.834,7.826,4.178
			l-0.441,0.212c-3.171,1.445-6.733,3.094-10.59,4.904c-4.294,2.013-7.713,3.595-10.446,4.836l-0.034,0.015l-0.034,0.016
			L406.167,101.662L406.167,101.662z"/>
	</g>
	<g>
		<path fill="#FFFFFF" d="M669.81,304.493c-4.908,0-9.223-1.637-12.823-4.864c-3.529-3.146-5.697-7.183-6.433-11.985l-0.391-2.732
			c-0.555-3.323-0.971-7.408-1.236-12.145c-0.253-4.385-0.515-8.371-0.777-11.838l-0.017-0.226v-3.897
			c-0.261-3.176-0.457-7.091-0.586-11.641c-0.131-4.465-0.198-8.414-0.198-11.73v-4.312c0-2.973-0.125-6.645-0.382-11.225
			c-0.249-4.305-0.502-8.183-0.753-11.525l-0.782-4.305l-0.024-0.306c-0.262-3.375-0.584-7.272-0.975-11.694
			c-0.436-4.94-0.749-8.701-0.986-11.833l-0.393-5.512c-0.269-3.185-0.536-7.131-0.79-11.652c-0.257-4.437-0.518-8.422-0.776-11.836
			l-0.409-4.493v-0.272c0-2.944-0.19-6.662-0.566-11.05c-0.404-4.72-0.609-8.914-0.609-12.465v-5.095
			c0-2.974-0.125-6.646-0.382-11.225c-0.261-4.507-0.396-8.565-0.401-12.057l-0.364-4.733c-0.027-0.218-0.058-0.414-0.089-0.59
			c-0.027,0.019-0.055,0.038-0.083,0.057l-2.255,1.877c-2.604,2.086-5.659,4.556-9.173,7.417c-3.473,2.834-6.375,5.285-8.622,7.28
			l-3.619,3.216l-0.096,0.079c-3.964,3.239-8.538,4.881-13.595,4.881c-4.585,0-8.605-1.13-11.95-3.359l-0.183-0.122l-3.621-2.816
			c-2.849-2.066-6.074-4.39-9.684-6.972c-3.64-2.593-6.763-4.808-9.362-6.631l-4.208-3.06c-0.453-0.276-0.819-0.474-1.108-0.615
			c-0.061,0.269-0.121,0.608-0.171,1.03l-0.406,3.658l-0.027,0.166c-0.476,2.829-0.778,6.441-0.899,10.736
			c-0.129,4.348-0.193,8.178-0.193,11.392v5.095c0,3.213-0.132,7.105-0.402,11.899c-0.272,4.744-0.688,8.957-1.235,12.526
			l-0.797,5.572c-0.487,2.898-0.858,6.567-1.103,10.903c-0.272,4.73-0.685,8.921-1.227,12.468l-0.794,5.945
			c-0.469,3.024-0.644,6.677-0.521,10.859c0.138,4.864-0.063,8.925-0.615,12.407l-0.373,5.977
			c-0.261,3.628-0.454,7.564-0.579,11.757c-0.139,4.451-0.478,8.495-1.008,12.034l-0.375,5.627c-0.271,3.508-0.673,7.603-1.2,12.234
			c-0.495,4.297-0.745,7.956-0.745,10.883v0.2l-0.406,6.078c-0.4,5.194-2.663,9.416-6.547,12.272
			c-3.522,2.594-7.554,3.91-11.98,3.91h-0.595l-2.215-0.443c-4.877-0.465-8.983-2.654-11.896-6.348
			c-2.805-3.55-4.229-7.769-4.229-12.534v-0.973l0.464-1.394c0.241-3.237,0.483-6.97,0.722-11.109
			c0.262-4.648,0.669-8.68,1.211-11.979l0.371-4.092c0.253-3.078,0.514-6.918,0.77-11.363c0.261-4.636,0.666-8.779,1.204-12.313
			l0.374-4.496c0.257-3.123,0.518-6.963,0.773-11.409c0.252-4.484,0.519-8.549,0.792-12.073l0.398-4.39
			c0.242-3.205,0.435-7.069,0.566-11.396c0.128-4.419,0.193-8.316,0.193-11.576v-4.703c0-3.538,0.135-7.676,0.401-12.299
			c0.268-4.758,0.688-8.869,1.249-12.209l0.798-4.392c0.467-2.817,0.839-6.493,1.089-10.833c0.253-4.501,0.382-8.41,0.382-11.608
			v-4.146l0.018-0.226c0.249-3.291,0.441-7.22,0.573-11.677c0.132-4.668,0.336-8.67,0.606-11.888l0.388-5.052
			c0.259-3.403,0.59-7.409,0.983-12.005c0.406-4.724,0.863-8.591,1.396-11.815l0.388-4.245c1.302-11.101,8.79-11.964,11.055-11.964
			c2.499,0,5.125,0.911,8.266,2.866l0.353,0.219l2.627,2.19c2.499,2.004,5.556,4.295,9.088,6.812
			c3.576,2.558,6.758,4.723,9.468,6.443l3.994,2.399c2.934,1.87,6.223,4.106,10.053,6.834c3.729,2.667,6.979,5.104,9.67,7.253
			l4.366,3.572c1.498,1.202,3.169,1.779,5.215,1.779c2.068,0,3.951-0.621,5.751-1.897l4.166-3.409
			c2.647-2.119,5.706-4.587,9.217-7.452c3.506-2.854,6.556-5.32,9.161-7.408l5.791-5.019c2.35-2.087,5.297-4.576,8.955-7.561
			c3.344-2.723,6.158-5.222,8.369-7.433l0.234-0.235l1.988-1.59c3.314-3.175,6.75-3.852,9.074-3.852
			c2.148,0,9.267,0.799,10.649,11.079l0.385,2.695c0.537,3.502,0.952,7.644,1.226,12.25c0.247,4.279,0.509,8.195,0.777,11.648
			l0.018,0.232v3.926c0.263,3.499,0.522,7.479,0.773,11.834c0.271,4.808,0.402,8.7,0.402,11.907v3.304
			c0.26,3.537,0.392,7.632,0.392,12.177v11.229l0.392,3.527v0.332c0,3.459,0.065,7.421,0.193,11.777
			c0.126,4.458,0.317,8.236,0.569,11.235l0.396,5.138c0.262,3.181,0.529,7.12,0.792,11.676c0.248,4.424,0.509,8.403,0.776,11.834
			l0.385,4.233c0.271,3.57,0.473,7.685,0.609,12.319c0.124,4.441,0.316,8.219,0.569,11.236l0.021,0.251v4.337
			c0.265,3.516,0.524,7.427,0.772,11.629c0.246,4.245,0.621,8.008,1.115,11.192l0.029,0.187l0.41,4.5
			c0.253,3.088,0.571,6.799,0.946,11.176l0.036,0.417c0.393,4.594,0.72,8.597,0.983,12.003l0.369,4.053
			c0.547,3.651,0.824,7.915,0.824,12.675c0,4.241,0.236,7.797,0.701,10.568l0.03,0.2l0.837,6.273v0.398
			c0,4.631-1.495,8.671-4.443,12.008c-3.089,3.503-7.423,5.358-12.53,5.358H669.81z"/>
		<path fill="#F7C22F" d="M663.539,27.677c2.608,0,4.176,1.959,4.703,5.879l0.392,2.743c0.521,3.399,0.912,7.318,1.176,11.758
			c0.257,4.446,0.521,8.365,0.784,11.757v3.919c0.257,3.398,0.521,7.385,0.783,11.953c0.258,4.575,0.393,8.426,0.393,11.562v3.527
			c0.257,3.399,0.392,7.385,0.392,11.954c0,4.575,0,8.426,0,11.562l0.392,3.527c0,3.399,0.062,7.385,0.196,11.954
			c0.129,4.574,0.324,8.426,0.588,11.562l0.392,5.095c0.258,3.135,0.521,6.993,0.784,11.562c0.257,4.574,0.521,8.561,0.784,11.953
			l0.392,4.312c0.257,3.398,0.453,7.385,0.588,11.953c0.128,4.575,0.324,8.426,0.588,11.562v4.311
			c0.257,3.398,0.521,7.318,0.783,11.757c0.258,4.446,0.649,8.365,1.176,11.758l0.393,4.311c0.257,3.136,0.588,6.993,0.979,11.562
			c0.392,4.574,0.717,8.561,0.979,11.953l0.393,4.312c0.521,3.398,0.783,7.385,0.783,11.953c0,4.574,0.258,8.427,0.784,11.562
			l0.784,5.879c0,3.136-0.98,5.817-2.939,8.034c-1.96,2.224-4.642,3.332-8.034,3.332h-3.136c-3.398,0-6.338-1.108-8.818-3.332
			c-2.486-2.217-3.986-5.027-4.507-8.426l-0.392-2.743c-0.527-3.136-0.919-6.987-1.176-11.562
			c-0.264-4.568-0.527-8.556-0.784-11.954v-3.919c-0.264-3.136-0.459-6.987-0.588-11.562c-0.135-4.568-0.196-8.426-0.196-11.562
			v-4.312c0-3.135-0.135-6.987-0.392-11.562c-0.264-4.568-0.526-8.555-0.784-11.953l-0.783-4.312
			c-0.264-3.393-0.588-7.312-0.98-11.757c-0.392-4.44-0.723-8.359-0.979-11.758l-0.392-5.487c-0.264-3.135-0.527-6.987-0.784-11.562
			c-0.264-4.568-0.526-8.555-0.784-11.954l-0.392-4.311c0-3.135-0.196-6.987-0.588-11.562c-0.392-4.568-0.588-8.555-0.588-11.954
			v-5.095c0-3.135-0.135-6.987-0.392-11.562c-0.264-4.568-0.392-8.555-0.392-11.954l-0.393-5.095
			c-0.526-4.44-2.223-6.663-5.095-6.663c-1.311,0-2.878,0.655-4.703,1.959l-2.352,1.959c-2.614,2.094-5.683,4.574-9.21,7.446
			c-3.527,2.878-6.467,5.358-8.818,7.447l-3.527,3.135c-2.878,2.352-6.142,3.527-9.798,3.527c-3.398,0-6.271-0.784-8.622-2.352
			l-3.527-2.744c-2.878-2.088-6.142-4.439-9.798-7.054c-3.662-2.609-6.797-4.832-9.406-6.663l-4.311-3.136
			c-2.095-1.304-3.791-1.959-5.096-1.959c-3.135,0-4.966,2.223-5.486,6.663l-0.392,3.527c-0.527,3.135-0.852,6.993-0.98,11.562
			c-0.135,4.575-0.195,8.426-0.195,11.562v5.095c0,3.135-0.135,6.993-0.393,11.562c-0.263,4.574-0.655,8.561-1.176,11.954
			l-0.783,5.487c-0.527,3.135-0.919,6.993-1.176,11.562c-0.264,4.574-0.655,8.561-1.176,11.954l-0.784,5.878
			c-0.526,3.399-0.723,7.385-0.588,11.954c0.129,4.575-0.067,8.426-0.588,11.562l-0.392,6.271c-0.264,3.662-0.46,7.642-0.588,11.953
			c-0.135,4.312-0.46,8.169-0.98,11.562l-0.392,5.878c-0.263,3.399-0.655,7.386-1.176,11.954c-0.526,4.575-0.783,8.427-0.783,11.562
			l-0.393,5.879c-0.263,3.398-1.635,6.014-4.115,7.838c-2.486,1.831-5.291,2.744-8.426,2.744l-1.96-0.393
			c-3.398-0.257-6.074-1.629-8.034-4.114c-1.96-2.48-2.939-5.42-2.939-8.818l0.392-1.176c0.258-3.393,0.521-7.38,0.784-11.954
			c0.257-4.568,0.649-8.426,1.176-11.561l0.392-4.312c0.258-3.135,0.521-6.986,0.784-11.561c0.257-4.568,0.649-8.555,1.176-11.953
			l0.392-4.703c0.258-3.135,0.521-6.987,0.784-11.562c0.257-4.568,0.521-8.555,0.784-11.954l0.392-4.311
			c0.257-3.393,0.453-7.312,0.588-11.758c0.129-4.439,0.196-8.359,0.196-11.757v-4.703c0-3.393,0.128-7.379,0.392-11.954
			c0.257-4.568,0.649-8.426,1.176-11.562l0.784-4.311c0.521-3.135,0.912-6.987,1.176-11.562c0.257-4.568,0.392-8.555,0.392-11.954
			v-3.919c0.257-3.393,0.453-7.379,0.588-11.954c0.129-4.568,0.324-8.426,0.588-11.562l0.392-5.095
			c0.258-3.393,0.588-7.379,0.979-11.954c0.393-4.568,0.846-8.426,1.372-11.562l0.392-4.311c0.521-4.439,2.217-6.663,5.096-6.663
			c1.304,0,3,0.655,5.095,1.959l2.352,1.96c2.608,2.094,5.744,4.446,9.406,7.054c3.655,2.615,6.919,4.838,9.798,6.663l3.919,2.352
			c2.872,1.831,6.136,4.054,9.798,6.663c3.656,2.615,6.791,4.966,9.406,7.055l4.311,3.527c2.609,2.094,5.616,3.135,9.015,3.135
			c3.393,0,6.527-1.041,9.406-3.135l4.311-3.527c2.609-2.088,5.683-4.568,9.21-7.446c3.527-2.872,6.596-5.353,9.21-7.447
			l5.879-5.095c2.352-2.088,5.291-4.568,8.818-7.447c3.527-2.872,6.467-5.487,8.818-7.838l1.96-1.568
			C660.012,28.46,661.708,27.677,663.539,27.677 M663.539,15.677c-3.384,0-8.333,0.941-13.019,5.323l-1.532,1.226l-0.519,0.415
			L648,23.11c-2.067,2.067-4.729,4.428-7.91,7.018c-3.706,3.024-6.697,5.55-9.153,7.729l-5.652,4.899
			c-2.624,2.103-5.685,4.578-9.103,7.36c-3.188,2.602-6.258,5.083-9.131,7.383L607,57.541l-0.051,0.041l-3.979,3.257
			c-0.904,0.605-1.562,0.693-2.138,0.693c-0.735,0-1.069-0.151-1.471-0.468l-4.255-3.482l-0.056-0.045l-0.056-0.044
			c-2.774-2.215-6.109-4.718-9.914-7.438c-3.936-2.803-7.307-5.095-10.327-7.021l-0.138-0.087l-0.14-0.083l-3.79-2.274
			c-2.604-1.655-5.671-3.744-9.119-6.21c-3.438-2.45-6.39-4.66-8.791-6.584l-2.266-1.888l-0.637-0.531l-0.703-0.438
			c-4.078-2.539-7.818-3.772-11.438-3.772c-5.142,0-9.867,2.325-12.966,6.379c-2.203,2.882-3.527,6.443-4.048,10.886l-0.019,0.156
			l-0.015,0.156l-0.352,3.874c-0.543,3.333-1.007,7.284-1.417,12.057c-0.437,5.097-0.75,8.931-0.989,12.072l-0.388,5.043
			c-0.277,3.32-0.486,7.419-0.621,12.185c-0.128,4.352-0.316,8.188-0.559,11.386l-0.034,0.452v0.454v3.919
			c0,3.086-0.125,6.881-0.373,11.28c-0.234,4.068-0.577,7.5-1.019,10.186l-0.767,4.212l-0.015,0.08l-0.013,0.081
			c-0.606,3.607-1.039,7.819-1.323,12.875c-0.271,4.72-0.41,8.974-0.41,12.627v4.703c0,3.201-0.064,7.04-0.191,11.409
			c-0.127,4.185-0.312,7.927-0.552,11.111l-0.384,4.22l-0.007,0.079l-0.006,0.079c-0.277,3.567-0.547,7.675-0.802,12.208
			c-0.252,4.38-0.509,8.171-0.763,11.251l-0.356,4.283c-0.551,3.675-0.966,7.939-1.232,12.683
			c-0.251,4.357-0.507,8.131-0.759,11.203l-0.347,3.825c-0.565,3.502-0.974,7.567-1.246,12.405
			c-0.218,3.779-0.439,7.223-0.659,10.251l-0.535,1.606v1.946c0,6.062,1.91,11.685,5.523,16.258
			c3.884,4.925,9.304,7.877,15.707,8.564l1.347,0.27l1.167,0.233h1.189c5.734,0,10.963-1.71,15.542-5.082
			c5.326-3.917,8.428-9.65,8.963-16.575l0.005-0.062l0.005-0.062l0.393-5.879l0.026-0.399v-0.4c0-2.697,0.237-6.126,0.704-10.19
			c0.538-4.717,0.947-8.885,1.219-12.4l0.005-0.063l0.005-0.063l0.358-5.386c0.544-3.711,0.892-7.905,1.034-12.477
			c0.122-4.127,0.312-7.979,0.562-11.466l0.004-0.057l0.004-0.057l0.356-5.703c0.575-3.784,0.785-8.116,0.642-13.216
			c-0.113-3.832,0.039-7.117,0.451-9.779l0.02-0.125l0.017-0.125l0.77-5.767c0.565-3.718,0.994-8.078,1.276-12.961
			c0.232-4.133,0.578-7.58,1.029-10.262l0.024-0.147l0.021-0.147l0.774-5.428c0.571-3.742,1.004-8.122,1.285-13.02
			c0.277-4.92,0.412-8.923,0.412-12.25v-5.095c0-3.155,0.063-6.926,0.19-11.208c0.053-1.872,0.14-3.592,0.262-5.155
			c1.818,1.285,3.932,2.786,6.451,4.581c3.36,2.403,6.579,4.72,9.552,6.876l3.369,2.621l0.347,0.27l0.365,0.244
			c4.347,2.897,9.486,4.366,15.277,4.366c6.385,0,12.398-2.156,17.391-6.235l0.193-0.158l0.187-0.166l3.526-3.135
			c2.182-1.937,5.021-4.333,8.434-7.119c0.787-0.642,1.557-1.267,2.307-1.876c0.067,1.785,0.157,3.66,0.27,5.616
			c0.247,4.386,0.372,8.05,0.372,10.87v5.095c0,3.722,0.213,8.088,0.632,12.979c0.361,4.217,0.544,7.763,0.544,10.537v0.544
			l0.049,0.542l0.384,4.222c0.254,3.36,0.511,7.279,0.763,11.648c0.255,4.524,0.524,8.5,0.801,11.801l0.386,5.411
			c0.242,3.208,0.558,6.992,0.996,11.958c0.365,4.139,0.691,8.052,0.97,11.633l0.048,0.612l0.109,0.603l0.671,3.693
			c0.241,3.239,0.484,6.976,0.723,11.118c0.247,4.386,0.372,8.05,0.372,10.87v4.312c0,3.375,0.068,7.384,0.201,11.915
			c0.13,4.592,0.32,8.431,0.583,11.7v3.427v0.453l0.034,0.451c0.26,3.432,0.519,7.382,0.77,11.741
			c0.279,4.973,0.704,9.138,1.297,12.707l0.371,2.603l0.009,0.061l0.01,0.06c0.938,6.132,3.837,11.514,8.382,15.566
			c4.645,4.163,10.464,6.375,16.805,6.375h3.136c6.88,0,12.771-2.558,17.036-7.397c3.881-4.392,5.938-9.917,5.938-15.969v-0.797
			l-0.105-0.79l-0.784-5.879l-0.026-0.2l-0.034-0.2c-0.41-2.444-0.618-5.665-0.618-9.574c0-4.981-0.291-9.482-0.864-13.388
			l-0.354-3.885c-0.276-3.562-0.606-7.588-0.981-11.969l-0.035-0.412c-0.375-4.372-0.692-8.077-0.94-11.105l-0.005-0.054
			l-0.005-0.055l-0.393-4.311l-0.034-0.377l-0.058-0.375c-0.465-2.996-0.819-6.566-1.055-10.613
			c-0.246-4.158-0.502-8.024-0.763-11.513v-3.861v-0.503l-0.042-0.502c-0.244-2.906-0.43-6.57-0.551-10.892
			c-0.14-4.746-0.348-8.953-0.617-12.522l-0.007-0.091l-0.008-0.09l-0.385-4.235c-0.262-3.372-0.518-7.28-0.761-11.617
			c-0.267-4.61-0.536-8.588-0.804-11.842l-0.389-5.061l-0.004-0.043l-0.003-0.043c-0.243-2.889-0.429-6.554-0.551-10.895
			c-0.127-4.313-0.191-8.216-0.191-11.615v-0.664l-0.073-0.66l-0.318-2.867v-10.897c0-4.597-0.132-8.763-0.392-12.394v-3.086
			c0-3.32-0.135-7.323-0.411-12.237c-0.248-4.309-0.505-8.247-0.765-11.728v-3.47v-0.466l-0.036-0.464
			c-0.266-3.413-0.523-7.289-0.768-11.52c-0.284-4.785-0.717-9.092-1.285-12.822l-0.377-2.639
			c-0.562-4.116-1.936-7.565-4.086-10.253C672.96,17.798,668.52,15.677,663.539,15.677L663.539,15.677z"/>
	</g>
	<g>
		<path fill="#FFFFFF" d="M841.86,300.573c-5.559,0-10.021-1.647-13.263-4.897l-1.43-1.431c-3.4-2.087-6.793-4.955-10.098-8.536
			c-2.958-3.2-5.562-5.81-7.738-7.754l-4.579-3.814c-2.726-2.183-5.814-4.928-9.181-8.162c-3.126-2.996-5.959-5.763-8.42-8.222
			l-4.459-4.087c-2.688-2.158-5.738-4.872-9.067-8.068c-3.182-3.053-6.018-5.821-8.428-8.23l-4.966-4.584
			c-2.418-2.148-5.333-4.798-8.667-7.88c-3.293-3.038-6.169-5.651-8.54-7.764l-5.019-4.631c-2.677-2.147-5.762-4.832-9.172-7.984
			c-3.46-3.191-6.328-6.057-8.524-8.517l-4.188-4.188c-2.147-2.147-5.002-4.625-8.483-7.367c-3.7-2.902-6.815-5.476-9.25-7.642
			l-5.329-4.568c-6.033-4.692-7.305-9.804-7.305-13.276c0-5.233,4.063-9.433,7.119-12.136c3.4-3.007,6.854-6.015,10.271-8.945
			l1.925-2.31l0.337-0.299c2.19-1.945,4.816-4.574,7.806-7.813c2.88-3.116,5.492-5.989,7.768-8.544l2.708-3.096
			c2.165-2.438,4.923-5.398,8.227-8.832c3.369-3.503,6.152-6.351,8.507-8.705l3.261-3.261l0.133-0.118
			c2.192-1.947,4.818-4.575,7.805-7.812c3.262-3.53,6.008-6.406,8.398-8.796l3.918-3.919c2.051-2.051,4.632-4.761,7.671-8.056
			c3.281-3.55,6.193-6.464,8.901-8.907l3.809-3.809c2.396-2.397,5.137-5.202,8.142-8.336c2.992-3.115,5.577-5.894,7.688-8.264
			l3.548-3.942c2.095-2.359,4.853-5.319,8.17-8.768c3.298-3.428,5.921-6.115,8.015-8.212l3.92-4.311l0.101-0.1
			c3.456-3.458,7.77-5.286,12.473-5.286c4.819,0,9.206,2.041,12.687,5.901l0.182,0.201l1.106,1.475
			c3.246,3.408,4.959,7.73,4.959,12.531c0,4.26-1.498,8.291-4.452,11.98l-0.206,0.258l-0.896,0.896
			c-2.19,2.455-4.906,5.368-8.074,8.661c-3.176,3.3-5.812,6.129-7.839,8.409l-2.466,2.876l-0.163,0.163
			c-2.284,2.284-5.024,5.09-8.146,8.34c-2.98,3.108-5.713,5.907-8.122,8.32l-1.75,2.1c-2.239,2.79-5.171,5.934-8.716,9.344
			c-3.43,3.3-6.39,6.058-8.798,8.197l-0.146,0.13l-3.387,2.634l-8.162,8.162c-3.183,3.183-5.804,5.931-7.79,8.167l-0.118,0.133
			l-3.139,3.139c-2.271,2.548-4.894,5.432-7.796,8.574c-3.22,3.489-5.759,6.282-7.76,8.535l-0.651,0.716l3.089-0.441
			c3.29-0.544,7.314-1.021,11.964-1.42c4.573-0.392,8.434-0.717,11.572-0.98l0.241-0.015l8.919-0.388
			c3.489-0.264,7.515-0.527,11.965-0.784c4.439-0.25,8.274-0.51,11.404-0.772l10.641-0.789c0.444-0.037,0.93-0.057,1.409-0.057
			c4.25,0,8.104,1.514,11.453,4.501c3.657,3.278,5.706,7.315,6.101,12.011l0.021,0.25v4.171c0,4.683-1.315,8.846-3.909,12.373
			c-2.007,2.724-5.826,6.066-12.644,6.545l-0.21,0.015h-0.898c-3.244,0.52-7.181,0.912-11.713,1.167
			c-4.421,0.255-8.262,0.515-11.407,0.773l-0.245,0.02h-2.146c-3.515,0.519-7.628,0.848-12.236,0.977
			c-4.44,0.131-8.225,0.323-11.239,0.57l-0.245,0.02h-2.205c-3.307,0-7.161,0.063-11.785,0.194
			c-4.135,0.122-7.819,0.188-10.963,0.197l0.219,0.218c2.42,2.158,5.303,4.779,8.569,7.793c3.292,3.043,6.15,5.642,8.499,7.728
			l2.878,2.467l0.162,0.163c2.31,2.31,5.152,5.022,8.448,8.063c3.38,3.124,6.192,5.927,8.367,8.342l2.618,2.244l0.162,0.163
			c2.313,2.313,5.156,5.025,8.448,8.062c3.283,3.034,6.205,5.576,8.69,7.561l0.124,0.099l3.646,3.241
			c2.417,2.152,5.345,4.813,8.704,7.912c3.522,3.256,6.429,6.165,8.643,8.649l2.867,3.277l0.084,0.105
			c1.841,2.305,4.406,4.861,7.625,7.6c3.521,3.002,6.52,5.6,8.914,7.727l4.364,3.967c3.842,3.462,5.883,7.849,5.883,12.669
			c0,4.858-1.907,8.973-5.521,11.926l-1.33,1.33C851.477,298.927,847.149,300.573,841.86,300.573z"/>
		<path fill="#F7C22F" d="M836.373,12.392c3.136,0,5.879,1.311,8.23,3.919l1.176,1.568c2.352,2.352,3.527,5.229,3.527,8.622
			c0,2.878-1.047,5.622-3.136,8.23l-0.783,0.784c-2.095,2.352-4.771,5.229-8.034,8.622c-3.271,3.399-5.946,6.271-8.034,8.622
			l-2.352,2.744c-2.352,2.352-5.096,5.162-8.23,8.426c-3.136,3.27-5.879,6.075-8.23,8.426l-1.96,2.352
			c-2.094,2.615-4.838,5.554-8.23,8.818c-3.398,3.271-6.271,5.946-8.622,8.035l-3.527,2.743c-2.352,2.352-5.162,5.163-8.426,8.426
			c-3.271,3.27-5.946,6.075-8.034,8.426l-3.136,3.135c-2.094,2.352-4.703,5.23-7.838,8.623c-3.136,3.398-5.75,6.271-7.839,8.622
			l-3.919,4.311c-1.831,1.831-2.743,3.398-2.743,4.703c0,1.311,0.521,2.027,1.567,2.155c1.041,0.135,2.608,0.196,4.703,0.196
			l8.23-1.176c3.135-0.521,6.987-0.98,11.562-1.372c4.568-0.392,8.426-0.716,11.562-0.979l9.014-0.392
			c3.393-0.257,7.38-0.521,11.954-0.784c4.568-0.257,8.426-0.521,11.562-0.784l10.582-0.784c0.325-0.027,0.647-0.04,0.966-0.04
			c2.748,0,5.231,0.993,7.46,2.979c2.48,2.223,3.852,4.899,4.115,8.035v3.919c0,3.398-0.919,6.338-2.743,8.818
			c-1.831,2.486-4.575,3.858-8.23,4.115h-1.176c-3.136,0.527-6.993,0.919-11.562,1.176c-4.574,0.264-8.427,0.527-11.562,0.784
			h-2.352c-3.398,0.526-7.386,0.851-11.954,0.979c-4.574,0.135-8.426,0.331-11.562,0.588h-1.959c-3.399,0-7.386,0.067-11.954,0.196
			c-4.574,0.134-8.426,0.196-11.562,0.196h-2.352c-3.919,0.526-5.879,1.702-5.879,3.527c0,1.567,0.913,3.135,2.744,4.703
			l2.352,2.351c2.352,2.095,5.224,4.703,8.622,7.838c3.393,3.136,6.271,5.75,8.622,7.838l2.743,2.352
			c2.352,2.352,5.224,5.095,8.622,8.23c3.393,3.135,6.137,5.879,8.23,8.23l2.743,2.352c2.352,2.352,5.224,5.095,8.623,8.23
			c3.393,3.135,6.398,5.75,9.014,7.838l3.527,3.135c2.352,2.094,5.224,4.703,8.622,7.838c3.393,3.136,6.136,5.879,8.23,8.23
			l2.743,3.136c2.088,2.614,4.899,5.426,8.427,8.426c3.527,3.007,6.466,5.555,8.817,7.643l4.312,3.92
			c2.608,2.351,3.919,5.095,3.919,8.229c0,3.136-1.176,5.622-3.527,7.446l-1.567,1.568c-2.095,2.094-4.967,3.135-8.622,3.135
			c-3.919,0-6.926-1.041-9.015-3.135l-1.959-1.96c-3.136-1.825-6.271-4.439-9.406-7.838c-3.136-3.393-5.879-6.137-8.23-8.23
			l-4.703-3.919c-2.614-2.089-5.554-4.703-8.817-7.839c-3.271-3.135-6.075-5.879-8.427-8.23l-4.703-4.311
			c-2.614-2.088-5.554-4.703-8.818-7.838c-3.27-3.137-6.074-5.879-8.426-8.23l-5.095-4.704c-2.352-2.088-5.23-4.703-8.622-7.838
			c-3.399-3.135-6.271-5.744-8.623-7.838l-5.095-4.703c-2.614-2.088-5.621-4.703-9.014-7.838c-3.399-3.135-6.143-5.878-8.23-8.23
			l-4.312-4.311c-2.352-2.352-5.358-4.96-9.014-7.838c-3.662-2.872-6.663-5.352-9.015-7.447l-5.486-4.703
			c-3.398-2.609-5.095-5.487-5.095-8.623c0-2.088,1.696-4.636,5.095-7.642c3.393-3.001,6.92-6.075,10.582-9.21l1.959-2.351
			c2.352-2.088,5.095-4.832,8.23-8.23c3.136-3.393,5.744-6.271,7.839-8.622l2.743-3.136c2.088-2.351,4.764-5.223,8.034-8.622
			c3.264-3.393,6.074-6.271,8.426-8.622l3.136-3.135c2.352-2.088,5.095-4.832,8.23-8.23c3.135-3.393,5.879-6.271,8.23-8.622
			l3.919-3.919c2.088-2.088,4.703-4.832,7.838-8.23c3.136-3.393,6.008-6.271,8.623-8.623l3.919-3.919
			c2.352-2.352,5.095-5.156,8.23-8.426c3.135-3.264,5.743-6.075,7.838-8.426l3.527-3.919c2.088-2.352,4.765-5.224,8.034-8.623
			c3.264-3.393,5.94-6.136,8.034-8.23l3.92-4.311C830.494,13.568,833.238,12.392,836.373,12.392 M836.373,0.392
			c-6.33,0-12.11,2.436-16.717,7.044l-0.2,0.2l-0.191,0.21l-3.73,4.103c-2.104,2.108-4.721,4.791-7.992,8.192
			c-3.405,3.54-6.131,6.465-8.332,8.943l-3.501,3.89l-0.021,0.023l-0.021,0.023c-2.062,2.316-4.597,5.04-7.532,8.096
			c-2.982,3.11-5.692,5.885-8.061,8.253l-3.701,3.701c-2.81,2.543-5.812,5.55-9.168,9.181c-2.992,3.244-5.517,5.896-7.511,7.89
			l-3.92,3.92c-2.445,2.446-5.245,5.378-8.558,8.963c-2.858,3.098-5.341,5.586-7.386,7.402l-0.265,0.235l-0.251,0.251l-3.136,3.135
			c-2.382,2.381-5.191,5.256-8.589,8.789c-3.358,3.49-6.171,6.509-8.359,8.973l-0.029,0.034l-0.029,0.034l-2.705,3.092
			c-2.246,2.52-4.822,5.353-7.658,8.422c-2.861,3.102-5.345,5.589-7.387,7.403l-0.674,0.599l-0.576,0.692l-1.314,1.578
			c-3.316,2.846-6.662,5.762-9.959,8.677c-2.262,2.001-9.144,8.089-9.144,16.63c0,4.791,1.659,11.764,9.503,17.921l5.185,4.443
			c2.521,2.241,5.718,4.881,9.503,7.85c3.278,2.582,5.954,4.901,7.934,6.881l4.07,4.07c2.334,2.604,5.223,5.488,8.821,8.807
			c3.435,3.175,6.569,5.906,9.315,8.117l4.789,4.42l0.079,0.073l0.079,0.071c2.347,2.089,5.195,4.679,8.469,7.698
			c3.332,3.08,6.262,5.744,8.701,7.911l4.837,4.466c2.423,2.42,5.259,5.188,8.433,8.233c3.439,3.303,6.49,6.021,9.309,8.292
			l4.222,3.868c2.47,2.467,5.302,5.232,8.422,8.223c3.467,3.331,6.676,6.184,9.531,8.472l4.452,3.71
			c2.02,1.81,4.461,4.261,7.259,7.289c3.474,3.764,7.08,6.848,10.737,9.182l0.953,0.954c3.023,3.03,8.521,6.651,17.502,6.651
			c8.641,0,14.071-3.615,17.105-6.647l1.14-1.141c4.826-4.066,7.472-9.842,7.472-16.361c0-6.556-2.717-12.475-7.859-17.12
			l-4.299-3.908l-0.052-0.048l-0.054-0.047c-2.426-2.153-5.453-4.778-9-7.801c-2.938-2.499-5.233-4.777-6.834-6.782l-0.168-0.21
			l-0.178-0.203l-2.742-3.136l-0.036-0.04l-0.036-0.041c-2.375-2.666-5.334-5.63-9.045-9.061c-3.397-3.133-6.351-5.818-8.788-7.988
			l-3.534-3.142l-0.237-0.21l-0.247-0.198c-2.373-1.895-5.185-4.342-8.357-7.274c-3.244-2.992-6.027-5.648-8.282-7.903l-0.325-0.326
			l-0.351-0.299l-2.153-1.846c-2.274-2.502-5.059-5.271-8.485-8.438c-3.245-2.993-6.028-5.65-8.281-7.903l-0.326-0.326l-0.35-0.3
			l-2.661-2.281c-1.754-1.559-3.798-3.408-6.098-5.518c2.847-0.061,5.397-0.092,7.612-0.092h1.959h0.491l0.49-0.04
			c2.911-0.239,6.59-0.425,10.934-0.553c4.638-0.13,8.835-0.458,12.482-0.974h1.47h0.491l0.49-0.04
			c3.101-0.255,6.893-0.512,11.271-0.764c4.569-0.257,8.457-0.636,11.829-1.156h0.218h0.421l0.42-0.03
			c9.104-0.64,14.298-5.23,17.052-8.968c3.373-4.587,5.081-9.946,5.081-15.935v-3.919v-0.503l-0.042-0.502
			c-0.521-6.183-3.309-11.703-8.064-15.965c-4.442-3.961-9.782-6.043-15.468-6.043c-0.625,0-1.261,0.025-1.891,0.076l-10.545,0.781
			l-0.059,0.004l-0.059,0.005c-3.076,0.258-6.855,0.514-11.232,0.761c-4.463,0.257-8.492,0.52-11.992,0.784l-8.822,0.384
			l-0.241,0.011l-0.241,0.02c-2.96,0.249-6.562,0.552-10.797,0.914c1.898-2.073,3.655-4.015,5.245-5.797l2.891-2.891l0.253-0.252
			l0.236-0.267c1.906-2.147,4.445-4.808,7.545-7.908l4.898-4.898l3-3l2.938-2.284l0.309-0.24l0.292-0.26
			c2.467-2.191,5.486-5.003,8.976-8.361c3.762-3.62,6.773-6.849,9.199-9.868l1.543-1.851c2.393-2.399,5.088-5.161,8.019-8.218
			c3.084-3.211,5.796-5.988,8.055-8.247l0.326-0.326l0.3-0.35l2.281-2.661c1.968-2.213,4.538-4.969,7.641-8.193
			c3.166-3.291,5.894-6.216,8.114-8.699l0.544-0.544l0.467-0.467l0.412-0.516c3.773-4.713,5.769-10.152,5.769-15.73
			c0-6.251-2.194-11.899-6.358-16.397l-0.744-0.993l-0.325-0.433l-0.362-0.402C848.866,3.118,842.938,0.392,836.373,0.392
			L836.373,0.392z"/>
	</g>
	<g>
		<path fill="#FFFFFF" d="M890.583,299.005c-5.597,0-10.376-2.163-13.842-6.261l-1.214-1.214l-0.205-0.256
			c-2.958-3.684-4.457-7.717-4.457-11.986c0-5.281,1.998-9.897,5.78-13.36l0.683-0.683c2.427-2.427,5.387-5.253,8.794-8.396
			c3.16-2.921,6.089-5.583,8.699-7.909l3.177-2.778c2.22-1.973,5.013-4.512,8.504-7.732c3.354-3.101,6.198-5.814,8.448-8.064
			l3.261-3.261l0.134-0.118c2.234-1.984,5.027-4.523,8.537-7.761c3.166-2.926,6.094-5.588,8.699-7.909l3.648-3.242l0.121-0.097
			c2.537-2.032,5.494-4.539,8.787-7.452c3.43-3.033,6.538-5.668,9.24-7.832l3.921-3.137c1.667-1.335,1.667-2.298,1.667-2.762
			c0-0.462,0-1.422-1.676-2.768l-0.255-0.205l-2.349-2.349c-2.639-2.117-5.659-4.682-8.984-7.629
			c-3.415-3.015-6.407-5.804-8.885-8.282l-3.136-3.135c-2.057-2.05-4.771-4.635-8.061-7.675c-3.198-2.95-6.1-5.476-8.621-7.504
			l-3.2-2.403c-2.699-2.156-5.812-4.793-9.249-7.84c-3.398-3-6.276-5.554-8.633-7.652l-0.13-0.115l-2.866-2.866
			c-2.268-2.268-5.032-4.906-8.452-8.067c-3.23-2.98-6.158-5.527-8.698-7.566l-0.117-0.094l-3.57-3.173
			c-5.606-4.703-6.786-9.753-6.786-13.169c0-4.951,4.007-8.855,7.498-11.703c3.344-2.723,6.817-5.881,10.328-9.392l0.162-0.163
			l2.746-2.353c2.397-2.389,5.331-5.12,8.725-8.122c3.438-3.04,6.546-5.675,9.239-7.832l3.21-2.411
			c2.604-2.086,5.63-4.598,8.993-7.466c3.484-2.963,6.416-5.504,8.72-7.557l4.266-3.878c2.281-2.027,4.983-4.54,8.311-7.73
			c3.242-3.115,6.255-5.799,8.957-7.979l3.141-3.14l0.258-0.207c3.689-2.954,7.852-4.452,12.372-4.452
			c4.702,0,9.016,1.827,12.473,5.284l1.805,1.805l0.208,0.261c2.952,3.694,4.448,7.592,4.448,11.583
			c0,4.959-1.827,9.408-5.285,12.865l-6.915,6.509c-2.355,2.098-5.238,4.65-8.638,7.656c-3.431,3.036-6.54,5.671-9.238,7.832
			l-7.274,5.655c-2.613,1.901-5.472,4.399-8.498,7.425L924.61,91.491c-0.965,0.965-1.377,2.041-1.377,3.596
			c0,1.676,0.471,2.96,1.519,4.115l1.378,1.034l0.188,0.167c2.432,2.166,5.359,4.827,8.7,7.909c3.312,3.06,6.183,5.67,8.538,7.762
			l3.008,2.631c2.729,2.196,5.832,4.896,9.226,8.026c3.236,2.991,6.044,5.544,8.353,7.598l3.139,2.354l0.188,0.168
			c2.433,2.166,5.359,4.827,8.7,7.909c3.387,3.13,6.205,5.941,8.388,8.365l3.011,2.635l0.142,0.141
			c2.411,2.412,5.216,5.151,8.336,8.142c3.134,3.01,5.962,5.526,8.41,7.481l0.262,0.209l2.98,2.98
			c3.768,3.778,5.676,7.841,5.676,12.081c0,4.941-2.115,9.256-6.119,12.482l-2.234,1.862c-2.53,2.254-5.378,4.844-8.467,7.699
			c-3.245,2.994-5.873,5.619-7.816,7.808l-0.118,0.133l-3.262,3.262c-2.11,2.111-4.858,4.729-8.399,8.002
			c-3.5,3.229-6.641,5.958-9.338,8.116l-3.592,2.795c-2.468,1.978-5.521,4.511-9.007,7.477c-3.467,2.955-6.403,5.5-8.723,7.559
			l-0.146,0.13l-3.523,2.74c-2.519,2.246-5.341,4.812-8.392,7.632c-3.236,2.985-6.035,5.655-8.328,7.943l-3.134,3.526l-0.125,0.124
			c-2.414,2.415-5.31,5.176-8.607,8.209c-3.306,3.04-6.342,5.672-9.025,7.826l-3.167,2.771l-0.136,0.105
			C898.299,297.657,894.554,299.005,890.583,299.005z"/>
		<path fill="#F7C22F" d="M966.223,15.919c3.136,0,5.879,1.176,8.23,3.527l1.567,1.568c2.089,2.615,3.136,5.229,3.136,7.838
			c0,3.398-1.176,6.271-3.527,8.622l-6.663,6.271c-2.352,2.094-5.229,4.642-8.622,7.642c-3.398,3.007-6.405,5.554-9.014,7.643
			l-7.055,5.487c-2.878,2.094-5.946,4.771-9.21,8.034c-3.271,3.27-5.946,5.946-8.034,8.035l-6.663,6.663
			c-2.094,2.094-3.135,4.703-3.135,7.838c0,3.398,1.176,6.271,3.527,8.622l1.567,1.176c2.352,2.094,5.224,4.703,8.622,7.838
			c3.393,3.135,6.271,5.75,8.622,7.838l3.136,2.743c2.608,2.094,5.615,4.703,9.014,7.838c3.393,3.135,6.271,5.75,8.622,7.838
			l3.136,2.352c2.352,2.094,5.224,4.703,8.622,7.838c3.393,3.135,6.136,5.879,8.23,8.23l3.135,2.743
			c2.352,2.352,5.156,5.095,8.427,8.23c3.264,3.135,6.203,5.75,8.818,7.838l2.743,2.743c2.608,2.615,3.919,5.23,3.919,7.838
			c0,3.136-1.311,5.75-3.919,7.838l-2.352,1.96c-2.352,2.094-5.229,4.703-8.622,7.838c-3.398,3.135-6.143,5.878-8.23,8.23
			l-3.136,3.135c-2.094,2.095-4.837,4.703-8.229,7.838c-3.399,3.136-6.405,5.75-9.015,7.838l-3.527,2.744
			c-2.614,2.094-5.683,4.641-9.21,7.642c-3.527,3.007-6.467,5.555-8.818,7.643l-3.527,2.743c-2.352,2.095-5.229,4.703-8.622,7.839
			c-3.398,3.135-6.271,5.879-8.622,8.23l-3.135,3.527c-2.352,2.352-5.163,5.033-8.427,8.034c-3.27,3.007-6.209,5.554-8.818,7.643
			l-3.135,2.743c-2.352,1.831-4.838,2.743-7.446,2.743c-3.92,0-7.055-1.433-9.406-4.311l-1.176-1.176
			c-2.095-2.609-3.136-5.353-3.136-8.23c0-3.656,1.305-6.663,3.919-9.015l0.784-0.783c2.352-2.352,5.224-5.096,8.622-8.23
			c3.393-3.136,6.271-5.744,8.622-7.839l3.136-2.743c2.352-2.089,5.224-4.703,8.622-7.839c3.393-3.135,6.271-5.879,8.622-8.229
			l3.136-3.136c2.352-2.088,5.224-4.703,8.622-7.838c3.393-3.135,6.271-5.744,8.622-7.838l3.527-3.135
			c2.608-2.088,5.615-4.636,9.014-7.642c3.393-3.001,6.399-5.548,9.015-7.643l3.919-3.135c2.608-2.088,3.919-4.568,3.919-7.447
			c0-2.872-1.311-5.352-3.919-7.446l-2.352-2.352c-2.614-2.088-5.621-4.636-9.014-7.643c-3.398-3-6.271-5.683-8.622-8.034
			l-3.136-3.135c-2.095-2.088-4.838-4.703-8.23-7.838c-3.398-3.135-6.405-5.744-9.014-7.838l-3.136-2.352
			c-2.614-2.088-5.621-4.636-9.014-7.642c-3.399-3.001-6.271-5.548-8.622-7.643l-2.744-2.744c-2.352-2.352-5.229-5.095-8.622-8.23
			c-3.398-3.135-6.405-5.744-9.014-7.838l-3.527-3.135c-3.136-2.609-4.703-5.487-4.703-8.623c0-1.825,1.764-4.176,5.291-7.054
			c3.527-2.872,7.115-6.136,10.777-9.798l2.743-2.351c2.352-2.352,5.224-5.028,8.623-8.035c3.393-3,6.398-5.548,9.014-7.642
			l3.136-2.352c2.608-2.088,5.683-4.636,9.21-7.643c3.527-3,6.467-5.548,8.818-7.643l4.311-3.919
			c2.352-2.088,5.156-4.703,8.427-7.838c3.264-3.135,6.203-5.744,8.817-7.838l3.136-3.135
			C960.209,16.966,963.088,15.919,966.223,15.919 M966.223,3.919c-5.834,0-11.409,1.995-16.122,5.768l-0.517,0.414l-0.468,0.468
			l-2.685,2.684c-2.77,2.25-5.827,4.979-9.098,8.122c-3.263,3.128-5.909,5.59-8.082,7.52L929.2,28.94l-0.052,0.047l-4.268,3.88
			c-2.261,2.013-5.142,4.509-8.564,7.42c-3.296,2.81-6.248,5.261-8.787,7.297l-2.982,2.237l-0.153,0.115l-0.148,0.119
			c-2.769,2.217-5.952,4.916-9.463,8.02c-3.407,3.014-6.373,5.772-8.824,8.206l-2.401,2.058l-0.35,0.3l-0.326,0.326
			c-3.366,3.367-6.688,6.388-9.869,8.978c-4.175,3.407-9.714,8.8-9.714,16.36c0,4.68,1.543,11.535,8.861,17.707l3.396,3.02
			l0.226,0.2l0.234,0.188c2.433,1.953,5.256,4.41,8.39,7.301c3.307,3.057,6.094,5.715,8.273,7.896l2.745,2.744l0.245,0.245
			l0.259,0.23c2.362,2.104,5.246,4.663,8.661,7.677c3.498,3.1,6.688,5.804,9.467,8.022l0.143,0.114l0.146,0.109l2.972,2.229
			c2.399,1.934,5.171,4.349,8.24,7.18c3.228,2.983,5.886,5.514,7.895,7.517l3.124,3.123c2.563,2.564,5.647,5.439,9.164,8.544
			c3.274,2.902,6.281,5.458,8.935,7.596l0.682,0.681l-1.724,1.379c-2.782,2.228-5.967,4.926-9.469,8.024
			c-3.221,2.849-6.102,5.292-8.562,7.262l-0.241,0.194l-0.231,0.206l-3.527,3.135c-2.645,2.356-5.601,5.042-8.795,7.995
			c-3.474,3.205-6.238,5.719-8.445,7.678l-0.266,0.236l-0.252,0.252l-3.136,3.136c-2.193,2.192-4.979,4.852-8.28,7.901
			c-3.44,3.175-6.196,5.681-8.416,7.653l-3.1,2.711l-0.04,0.035l-0.04,0.035c-2.637,2.35-5.593,5.036-8.786,7.987
			c-3.458,3.19-6.477,6.072-8.962,8.558l-0.592,0.591c-4.99,4.617-7.626,10.727-7.626,17.692c0,5.59,1.998,11.034,5.778,15.742
			l0.409,0.511l0.463,0.463l0.815,0.814c4.622,5.359,10.918,8.187,18.252,8.187c5.263,0,10.387-1.824,14.818-5.275l0.271-0.211
			l0.259-0.227l2.941-2.574c2.764-2.222,5.868-4.915,9.232-8.009c3.358-3.089,6.315-5.909,8.789-8.382l0.25-0.25l0.234-0.264
			l2.896-3.258c2.214-2.206,4.913-4.778,8.027-7.651c2.974-2.748,5.718-5.245,8.171-7.434l3.209-2.496l0.309-0.24l0.293-0.259
			c2.288-2.032,5.193-4.55,8.636-7.484c3.4-2.894,6.384-5.369,8.859-7.354l3.461-2.692l0.064-0.051l0.064-0.051
			c2.807-2.246,6.055-5.068,9.654-8.388c3.608-3.335,6.412-6.007,8.58-8.175l3.133-3.133l0.252-0.252l0.237-0.267
			c1.811-2.04,4.298-4.521,7.394-7.377c3.04-2.81,5.836-5.353,8.32-7.567l2.123-1.77c5.361-4.341,8.312-10.415,8.312-17.12
			c0-4.047-1.288-10.162-7.423-16.312l-2.754-2.754l-0.474-0.474l-0.523-0.418c-2.307-1.842-4.996-4.236-7.993-7.115
			c-3.099-2.97-5.873-5.68-8.255-8.062l-0.282-0.282l-0.301-0.263l-2.595-2.271c-2.286-2.518-5.084-5.301-8.528-8.485
			c-3.376-3.114-6.329-5.799-8.786-7.987l-0.377-0.336l-0.404-0.303l-2.734-2.051c-2.246-2-4.961-4.471-8.078-7.352
			c-3.461-3.193-6.635-5.955-9.443-8.22l-2.914-2.549c-2.321-2.062-5.152-4.636-8.414-7.651c-3.374-3.112-6.327-5.797-8.786-7.987
			l-0.376-0.335l-0.403-0.302l-0.13-0.098l6.117-6.116l8.033-8.035c2.807-2.806,5.426-5.099,7.786-6.817l0.155-0.113l0.151-0.118
			l7.055-5.487l0.066-0.052l0.066-0.053c2.774-2.222,5.959-4.921,9.466-8.023c3.402-3.01,6.291-5.566,8.65-7.668l0.123-0.11
			l0.121-0.113l6.663-6.271l0.132-0.125l0.129-0.128c4.606-4.607,7.042-10.522,7.042-17.107c0-5.387-1.938-10.544-5.76-15.328
			l-0.417-0.522l-0.473-0.472l-1.567-1.568C978.33,6.354,972.551,3.919,966.223,3.919L966.223,3.919z"/>
	</g>
</g>
</svg>
