<?xml version="1.0" encoding="utf-8"?>
<!-- Generator: Adobe Illustrator 16.0.0, SVG Export Plug-In . SVG Version: 6.00 Build 0)  -->
<!DOCTYPE svg PUBLIC "-//W3C//DTD SVG 1.1//EN" "http://www.w3.org/Graphics/SVG/1.1/DTD/svg11.dtd">
<svg version="1.1" id="Layer_1" xmlns="http://www.w3.org/2000/svg" xmlns:xlink="http://www.w3.org/1999/xlink" x="0px" y="0px"
	 width="1019.374px" height="310.493px" viewBox="0 0 1019.374 310.493" enable-background="new 0 0 1019.374 310.493"
	 xml:space="preserve">
<g>
	<g>
		<path d="M50.8,300.573c-4.454,0-8.568-1.394-12.227-4.143c-3.805-2.851-6.228-6.922-7.007-11.777l-0.792-3.979
			c-0.55-3.278-1.019-7.217-1.433-12.042c-0.393-4.577-0.724-8.441-0.982-11.583l-0.394-5.126
			c-0.271-3.493-0.538-7.559-0.792-12.076c-0.25-4.331-0.621-8.007-1.104-10.917l-0.794-5.548c-0.546-3.27-1.011-7.187-1.42-11.971
			c-0.375-4.375-0.817-8.107-1.312-11.091l-0.795-5.165c-0.531-3.157-1.058-7.042-1.599-11.796
			c-0.523-4.537-0.922-8.449-1.184-11.622l-0.758-6.059c-0.558-3.636-0.841-7.937-0.841-12.784c0-4.211-0.236-7.77-0.703-10.579
			l-0.048-0.29l-0.408-6.122c-0.256-3.041-0.644-6.854-1.154-11.333c-0.51-4.423-1.016-8.167-1.502-11.121l-1.125-5.25
			c-0.837-3.373-1.535-7.489-2.076-12.238c-0.535-4.643-0.812-8.698-0.822-12.048l-0.38-6.089
			c-0.266-3.416-0.533-7.411-0.786-11.785c-0.249-4.195-0.621-7.941-1.107-11.129L6,47.798v-0.525c0-3.96,1.079-7.767,3.205-11.315
			c1.791-2.979,5.375-6.622,12.328-7.193l2.974-0.425h0.426c4.676,0,8.838,1.314,12.369,3.907c2.7,1.993,6.003,5.762,6.536,12.467
			l0.392,3.136l0.011,0.146c0.236,3.115,0.545,6.828,0.974,11.684c0.384,4.357,0.83,8.18,1.324,11.364l0.025,0.162l0.389,3.892
			c0.534,3.261,1.005,7.242,1.399,11.835c0.381,4.446,0.822,8.305,1.311,11.472l0.826,4.541l0.023,0.312
			c0.25,3.296,0.637,7.167,1.151,11.504c0.517,4.416,1.034,8.296,1.538,11.543l0.035,0.259l0.38,3.426
			c0.374,2.511,1.282,3.395,1.937,3.841c1.414,0.97,3.096,1.459,5.149,1.501l6.931-0.729c3.273-0.537,7.26-1.008,11.853-1.401
			c4.476-0.384,8.361-0.83,11.546-1.323l8.683-1.185c3.519-0.539,7.586-1.013,12.088-1.41c4.348-0.384,8.172-0.83,11.367-1.324
			l0.209-0.033l9.617-0.801c1.714-0.141,3.2-0.896,4.681-2.378c1.36-1.36,1.967-2.771,1.967-4.576v-16.656
			c0-4.73,0.138-8.908,0.41-12.417l0.387-5.815c0.247-3.012,0.307-6.68,0.185-10.993c-0.137-4.63-0.072-8.787,0.193-12.35v-7.219
			c0-3.31,0.067-7.259,0.199-11.738c0.129-4.601,0.331-8.567,0.598-11.784l0.396-7.894c0.376-4.963,2.593-9.3,6.409-12.543
			C152.138,7.602,156.346,6,160.929,6h3.135c7.062,0,10.91,3.268,12.895,6.009c2.449,3.395,3.688,7.345,3.688,11.748v0.25
			l-0.434,5.201l-0.042,0.247c-0.476,2.831-0.778,6.443-0.899,10.737c-0.128,4.359-0.193,8.322-0.193,11.784v16.657
			c0,4.652-0.138,8.827-0.409,12.407l-0.39,5.46c-0.252,3.002-0.377,6.723-0.377,11.134v11.374l0.38,6.083
			c0.277,3.654,0.209,8-0.207,12.841c-0.375,4.386-0.566,8.104-0.566,11.048v0.187l-0.403,6.458c-0.254,3.29-0.38,7.155-0.38,11.579
			v18.225c0,3.15-0.065,6.988-0.198,11.73c-0.137,4.65-0.339,8.764-0.603,12.238l-0.013,0.17l-0.825,6.174
			c-0.473,3.055-0.713,6.768-0.713,11.035c0,4.665-0.139,8.72-0.412,12.052l-0.385,5.787c-0.252,3.255-0.312,7.062-0.185,11.378
			c0.13,4.644,0.065,8.669-0.194,11.979v5.639c0,4.819-2.041,9.206-5.901,12.687c-3.743,3.366-7.861,5.07-12.248,5.07h-2.578
			l-0.226-0.017c-4.857-0.367-8.969-2.207-12.222-5.469c-3.321-3.312-5.083-7.695-5.083-12.664v-4.164l0.02-0.245
			c0.247-3.009,0.372-6.733,0.372-11.071v-18.224c0-3.285,0.205-7.347,0.61-12.073c0.391-4.551,0.714-8.521,0.976-11.905
			l0.011-0.141l0.727-5.814c-0.233-3.427-0.082-7.337,0.462-11.924c0.473-4.028,0.596-7.74,0.365-11.023l-0.389-5.055
			c-0.146-1.744-0.757-3.15-1.918-4.387c-0.528-0.559-1.245-1.087-2.821-1.087c-0.19,0-0.385,0.008-0.583,0.023l-5.512,0.394
			c-2.903,0.244-6.678,0.692-11.146,1.327c-4.489,0.643-8.334,1.229-11.423,1.742l-8.292,1.186
			c-3.134,0.526-7.049,1.123-11.638,1.775c-4.763,0.682-8.662,1.144-11.915,1.411l-0.23,0.014l-8.899,0.387
			c-1.933,0.17-2.728,0.946-3.298,1.761c-1.044,1.491-1.586,2.957-1.653,4.473l0.716,5.727c0.526,3.189,1.047,7.03,1.589,11.736
			c0.511,4.486,1.023,8.27,1.524,11.256l0.036,0.211l0.805,8.443c0.256,3.121,0.575,6.844,0.952,11.238l0.033,0.38
			c0.394,4.593,0.72,8.596,0.984,12.002l0.397,7.908c0.263,3.213,0.527,7.118,0.787,11.609c0.244,4.34,0.615,8.141,1.103,11.306
			l1.65,9.075v0.541c0,4.65-1.162,8.651-3.453,11.891c-1.792,2.542-5.273,5.677-11.678,6.225l-2.983,0.426H50.8z"/>
	</g>
	<g>
		<path d="M335.333,300.573c-5.56,0-10.021-1.647-13.263-4.898l-1.43-1.43c-3.401-2.087-6.794-4.955-10.098-8.536
			c-2.956-3.198-5.56-5.808-7.739-7.754l-4.579-3.815c-2.723-2.178-5.811-4.923-9.181-8.16c-3.129-3-5.963-5.768-8.419-8.223
			l-4.459-4.087c-2.69-2.159-5.74-4.873-9.068-8.069c-3.176-3.046-6.012-5.815-8.428-8.23l-4.965-4.583
			c-2.395-2.127-5.31-4.778-8.667-7.88c-3.284-3.03-6.159-5.643-8.54-7.764l-5.02-4.631c-2.676-2.146-5.761-4.832-9.172-7.984
			c-3.462-3.194-6.33-6.06-8.522-8.517l-4.188-4.188c-2.147-2.147-5.001-4.626-8.483-7.367c-3.699-2.901-6.813-5.474-9.25-7.642
			l-5.329-4.567c-6.035-4.693-7.306-9.804-7.306-13.277c0-5.233,4.063-9.433,7.12-12.136c3.409-3.016,6.862-6.023,10.27-8.945
			l1.925-2.31l0.336-0.299c2.193-1.947,4.818-4.576,7.805-7.812c2.898-3.136,5.51-6.009,7.768-8.544l2.709-3.096
			c2.159-2.432,4.917-5.392,8.226-8.831c3.361-3.495,6.145-6.342,8.507-8.705l3.261-3.261l0.133-0.118
			c2.193-1.947,4.819-4.576,7.805-7.812c3.272-3.541,6.018-6.417,8.397-8.796l3.919-3.919c2.049-2.049,4.63-4.76,7.671-8.056
			c3.279-3.548,6.191-6.462,8.9-8.907l3.81-3.809c2.412-2.412,5.151-5.217,8.141-8.335c2.997-3.121,5.583-5.899,7.689-8.264
			l3.548-3.943c2.107-2.373,4.865-5.333,8.17-8.768c3.324-3.455,5.947-6.143,8.014-8.211l3.919-4.312l0.101-0.101
			c3.458-3.458,7.771-5.285,12.473-5.285c4.819,0,9.206,2.041,12.687,5.901l0.181,0.201l1.106,1.475
			c3.246,3.408,4.959,7.73,4.959,12.531c0,4.26-1.498,8.291-4.451,11.98l-0.207,0.259l-0.897,0.897
			c-2.193,2.457-4.909,5.37-8.075,8.661c-3.174,3.299-5.811,6.128-7.837,8.407l-2.466,2.878l-0.163,0.163
			c-2.292,2.292-4.957,5.02-8.146,8.34c-2.976,3.104-5.708,5.903-8.121,8.319l-1.749,2.099c-2.243,2.794-5.176,5.938-8.717,9.345
			c-3.43,3.301-6.39,6.059-8.798,8.197l-0.146,0.13l-3.387,2.634l-8.162,8.162c-3.188,3.188-5.809,5.936-7.79,8.167l-0.118,0.133
			l-3.14,3.139c-2.301,2.582-4.923,5.465-7.797,8.575c-3.235,3.507-5.774,6.299-7.758,8.533l-0.652,0.717l3.089-0.441
			c3.292-0.544,7.317-1.021,11.964-1.42c4.572-0.392,8.434-0.717,11.572-0.98l0.241-0.015l8.919-0.388
			c3.492-0.264,7.517-0.528,11.964-0.784c4.44-0.25,8.275-0.51,11.405-0.772l10.64-0.789c0.444-0.037,0.93-0.057,1.41-0.057
			c4.25,0,8.103,1.514,11.453,4.501c3.658,3.28,5.707,7.317,6.101,12.011l0.021,0.25v4.17c0,4.684-1.316,8.848-3.911,12.375
			c-2.005,2.722-5.824,6.065-12.642,6.544l-0.21,0.015h-0.897c-3.244,0.52-7.181,0.912-11.713,1.167
			c-4.417,0.254-8.258,0.515-11.408,0.773l-0.245,0.02h-2.146c-3.515,0.519-7.628,0.848-12.236,0.977
			c-4.44,0.131-8.225,0.323-11.239,0.57l-0.245,0.02h-2.206c-3.261,0-7.225,0.065-11.784,0.194
			c-4.136,0.122-7.821,0.188-10.964,0.197l0.218,0.218c2.416,2.154,5.298,4.775,8.57,7.793c3.292,3.043,6.15,5.642,8.5,7.728
			l2.877,2.467l0.163,0.163c2.312,2.312,5.154,5.024,8.448,8.063c3.376,3.12,6.188,5.923,8.367,8.342l2.618,2.244l0.163,0.163
			c2.309,2.309,5.151,5.022,8.448,8.063c3.277,3.029,6.2,5.571,8.69,7.561l0.124,0.099l3.645,3.24
			c2.417,2.151,5.344,4.812,8.704,7.912c3.526,3.259,6.433,6.168,8.644,8.65l2.866,3.276l0.084,0.104
			c1.843,2.308,4.408,4.864,7.625,7.601c3.537,3.015,6.535,5.613,8.915,7.727l4.364,3.967c3.841,3.461,5.882,7.849,5.882,12.669
			c0,4.858-1.907,8.973-5.521,11.926l-1.331,1.331C344.95,298.927,340.622,300.573,335.333,300.573z"/>
	</g>
	<g>
		<path d="M484.258,302.141c-3.931,0-7.517-1.195-10.657-3.554c-2.994-2.241-5.119-5.108-6.312-8.52l-1.021-2.38
			c-1.703-3.44-3.201-7.515-4.455-12.111c-1.099-4.028-2.268-7.543-3.475-10.445l-1.921-4.609c-1.389-3.057-2.844-6.936-4.325-11.53
			c-1.431-4.415-2.669-8.191-3.707-11.317l-1.586-5.152c-1.043-3.123-2.28-6.826-3.704-11.109
			c-1.359-4.073-2.667-7.505-3.886-10.194l-0.106-0.248l-2.352-5.879c-1.295-3.096-2.739-6.835-4.379-11.349
			c-1.683-4.627-2.791-8.571-3.383-12.046l-1.123-4.863c-0.739-2.951-1.789-6.526-3.208-10.93c-1.357-4.188-2.661-7.669-3.87-10.338
			l-1.939-4.646c-0.549-1.023-1.351-1.858-2.448-2.546c-1.135-0.707-2.245-1.042-3.473-1.042c-0.478,0-0.802,0.044-0.991,0.082
			c-0.314,0.065-0.714,0.171-1.167,0.312l-7.529,3.389c-1.827,0.832-3.564,2.436-5.142,4.758c-1.626,2.394-2.537,4.654-2.707,6.722
			l-0.372,5.591c-0.008,3.255-0.213,7.247-0.609,11.871c-0.375,4.381-0.566,8.231-0.566,11.441v5.879
			c0,3.209-0.131,7.102-0.401,11.899c-0.257,4.473-0.523,8.531-0.792,12.069l-0.013,0.17l-0.82,6.149l-0.017,0.1
			c-0.476,2.835-0.778,6.448-0.899,10.738c-0.139,4.708-0.478,8.887-1.007,12.434l-0.375,5.629
			c-0.385,5.361-2.425,9.603-6.064,12.636c-3.447,2.873-7.641,4.33-12.463,4.33h-0.332l-3.553-0.395
			c-7.041-0.114-10.711-3.594-12.556-6.521c-2.172-3.438-3.276-7.351-3.276-11.626v-0.272l0.437-4.803l0.036-0.219
			c0.483-2.909,0.854-6.585,1.104-10.925c0.257-4.564,0.382-8.236,0.382-11.216v-4.311c0-3.264,0.135-7.207,0.402-11.72
			c0.249-4.29,0.514-8.405,0.789-12.225l0.392-5.484c0.241-3.181,0.555-6.94,0.987-11.856c0.404-4.576,0.857-8.478,1.384-11.918
			l0.374-4.868c0.258-3.403,0.59-7.409,0.984-12.006c0.375-4.376,0.566-8.094,0.566-11.049v-5.487c0-3.533,0.135-7.67,0.402-12.298
			c0.265-4.713,0.68-8.789,1.231-12.107l0.799-5.971c0.483-2.913,0.855-6.588,1.104-10.924c0.253-4.494,0.382-8.402,0.382-11.609
			V61.578c0-2.85,0.298-5.54,0.886-7.999l0.723-5.062c0.239-2.451,0.424-5.259,0.551-8.349c0.134-3.4,0.415-6.692,0.833-9.772
			c0.482-3.528,1.291-6.468,2.473-8.989c1.888-4.056,5.513-6.392,9.939-6.392c2.5,0,4.984,0.608,7.386,1.809l0.484,0.242
			l1.657,1.243l10.008,5.476c4.05,2.225,7.504,4.113,10.377,5.678l2.801,1.599l10.337,5.656c4.006,2.2,7.429,4.072,10.284,5.627
			l2.355,1.178l10.484,5.736c3.951,2.17,7.334,4.021,10.165,5.563l3.53,1.568l0.215,0.117c2.773,1.515,6.133,3.388,10.269,5.728
			c3.916,2.22,7.43,4.315,10.449,6.229l0.14,0.089l2.587,1.848c2.883,1.584,6.232,3.558,9.961,5.871
			c3.674,2.283,6.937,4.203,9.701,5.708l2.964,1.694c5.644,3.392,6.828,7.653,6.828,10.629c0,2.289-0.78,7.848-7.909,10.603
			l-0.602,0.3l-0.098,0.044c-2.861,1.303-6.367,2.922-10.52,4.871c-4.133,1.936-7.478,3.486-10.206,4.729l-1.175,0.783
			l-22.125,10.058l-1.773,0.709c-2.829,1.558-3.988,3.404-3.988,6.312c0,0.06,0.012,0.603,0.422,1.859l1.742,4.355l0.106,0.642
			c0.45,2.712,1.458,6.06,2.993,9.948c1.73,4.398,3.189,8.014,4.462,11.061l0.086,0.205l2.006,6.018
			c1.081,2.993,2.347,6.725,3.763,11.094c1.429,4.431,2.665,8.195,3.707,11.315l1.568,4.706c1.053,3.171,2.26,7.06,3.59,11.564
			c1.262,4.301,2.408,7.871,3.41,10.618l2.015,6.036c0.99,2.984,2.254,6.585,3.865,11.016c1.522,4.188,2.912,7.666,4.132,10.338
			l0.112,0.263l2.302,5.757c1.373,3.045,2.813,6.822,4.284,11.229c1.428,4.293,2.664,7.998,3.707,11.121l2.378,6.742
			c0.471,1.436,0.69,3.275,0.69,5.788c0,3.479-0.966,6.79-2.87,9.84c-2.14,3.421-5.431,5.688-9.53,6.571l-2.429,0.693
			C488.137,301.933,486.453,302.141,484.258,302.141z M399.334,110.244c0.007,0.462,0.032,0.846,0.066,1.16
			c0.083-0.039,0.432-0.209,0.432-0.209l10.189-4.703c2.784-1.264,6.224-2.857,10.551-4.884c3.856-1.809,7.417-3.458,10.583-4.9
			l10.501-5.056l-8.034-4.822c-2.707-1.716-6-3.516-9.788-5.35c-4.163-2.012-7.8-3.999-10.812-5.907l-9.125-4.943
			c-0.846-0.414-1.321-0.489-1.492-0.501c-0.098,0.252-0.231,0.697-0.33,1.417v6.69c0,3.594-0.277,7.844-0.822,12.632
			c-0.518,4.492-0.906,8.316-1.157,11.374L399.334,110.244z"/>
	</g>
	<g>
		<path d="M669.81,304.493c-4.908,0-9.223-1.637-12.823-4.864c-3.529-3.146-5.697-7.183-6.433-11.985l-0.391-2.732
			c-0.555-3.323-0.971-7.408-1.236-12.145c-0.253-4.385-0.515-8.371-0.777-11.838l-0.017-0.226v-3.897
			c-0.261-3.176-0.457-7.091-0.586-11.641c-0.131-4.465-0.198-8.414-0.198-11.73v-4.312c0-2.973-0.125-6.645-0.382-11.225
			c-0.249-4.305-0.502-8.183-0.753-11.525l-0.782-4.305l-0.024-0.306c-0.262-3.375-0.584-7.272-0.975-11.694
			c-0.436-4.94-0.749-8.701-0.986-11.833l-0.393-5.512c-0.269-3.185-0.536-7.131-0.79-11.652c-0.257-4.437-0.518-8.422-0.776-11.836
			l-0.409-4.493v-0.272c0-2.944-0.19-6.662-0.566-11.05c-0.404-4.72-0.609-8.914-0.609-12.465v-5.095
			c0-2.974-0.125-6.646-0.382-11.225c-0.261-4.507-0.396-8.565-0.401-12.057l-0.364-4.733c-0.027-0.218-0.058-0.414-0.089-0.59
			c-0.027,0.019-0.055,0.038-0.083,0.057l-2.255,1.877c-2.604,2.086-5.659,4.556-9.173,7.417c-3.473,2.834-6.375,5.285-8.622,7.28
			l-3.619,3.216l-0.096,0.079c-3.964,3.239-8.538,4.881-13.595,4.881c-4.585,0-8.605-1.13-11.95-3.359l-0.183-0.122l-3.621-2.816
			c-2.849-2.066-6.074-4.39-9.684-6.972c-3.64-2.593-6.763-4.808-9.362-6.631l-4.208-3.06c-0.453-0.276-0.819-0.474-1.108-0.615
			c-0.061,0.269-0.121,0.608-0.171,1.03l-0.406,3.658l-0.027,0.166c-0.476,2.829-0.778,6.441-0.899,10.736
			c-0.129,4.348-0.193,8.178-0.193,11.392v5.095c0,3.213-0.132,7.105-0.402,11.899c-0.272,4.744-0.688,8.957-1.235,12.526
			l-0.797,5.572c-0.487,2.898-0.858,6.567-1.103,10.903c-0.272,4.73-0.685,8.921-1.227,12.468l-0.794,5.945
			c-0.469,3.024-0.644,6.677-0.521,10.859c0.138,4.864-0.063,8.925-0.615,12.407l-0.373,5.977
			c-0.261,3.628-0.454,7.564-0.579,11.757c-0.139,4.451-0.478,8.495-1.008,12.034l-0.375,5.627c-0.271,3.508-0.673,7.603-1.2,12.234
			c-0.495,4.297-0.745,7.956-0.745,10.883v0.2l-0.406,6.078c-0.4,5.194-2.663,9.416-6.547,12.272
			c-3.522,2.594-7.554,3.91-11.98,3.91h-0.595l-2.215-0.443c-4.877-0.465-8.983-2.654-11.896-6.348
			c-2.805-3.55-4.229-7.769-4.229-12.534v-0.973l0.464-1.394c0.241-3.237,0.483-6.97,0.722-11.109
			c0.262-4.648,0.669-8.68,1.211-11.979l0.371-4.092c0.253-3.078,0.514-6.918,0.77-11.363c0.261-4.636,0.666-8.779,1.204-12.313
			l0.374-4.496c0.257-3.123,0.518-6.963,0.773-11.409c0.252-4.484,0.519-8.549,0.792-12.073l0.398-4.39
			c0.242-3.205,0.435-7.069,0.566-11.396c0.128-4.419,0.193-8.316,0.193-11.576v-4.703c0-3.538,0.135-7.676,0.401-12.299
			c0.268-4.758,0.688-8.869,1.249-12.209l0.798-4.392c0.467-2.817,0.839-6.493,1.089-10.833c0.253-4.501,0.382-8.41,0.382-11.608
			v-4.146l0.018-0.226c0.249-3.291,0.441-7.22,0.573-11.677c0.132-4.668,0.336-8.67,0.606-11.888l0.388-5.052
			c0.259-3.403,0.59-7.409,0.983-12.005c0.406-4.724,0.863-8.591,1.396-11.815l0.388-4.245c1.302-11.101,8.79-11.964,11.055-11.964
			c2.499,0,5.125,0.911,8.266,2.866l0.353,0.219l2.627,2.19c2.499,2.004,5.556,4.295,9.088,6.812
			c3.576,2.558,6.758,4.723,9.468,6.443l3.994,2.399c2.934,1.87,6.223,4.106,10.053,6.834c3.729,2.667,6.979,5.104,9.67,7.253
			l4.366,3.572c1.498,1.202,3.169,1.779,5.215,1.779c2.068,0,3.951-0.621,5.751-1.897l4.166-3.409
			c2.647-2.119,5.706-4.587,9.217-7.452c3.506-2.854,6.556-5.32,9.161-7.408l5.791-5.019c2.35-2.087,5.297-4.576,8.955-7.561
			c3.344-2.723,6.158-5.222,8.369-7.433l0.234-0.235l1.988-1.59c3.314-3.175,6.75-3.852,9.074-3.852
			c2.148,0,9.267,0.799,10.649,11.079l0.385,2.695c0.537,3.502,0.952,7.644,1.226,12.25c0.247,4.279,0.509,8.195,0.777,11.648
			l0.018,0.232v3.926c0.263,3.499,0.522,7.479,0.773,11.834c0.271,4.808,0.402,8.7,0.402,11.907v3.304
			c0.26,3.537,0.392,7.632,0.392,12.177v11.229l0.392,3.527v0.332c0,3.459,0.065,7.421,0.193,11.777
			c0.126,4.458,0.317,8.236,0.569,11.235l0.396,5.138c0.262,3.181,0.529,7.12,0.792,11.676c0.248,4.424,0.509,8.403,0.776,11.834
			l0.385,4.233c0.271,3.57,0.473,7.685,0.609,12.319c0.124,4.441,0.316,8.219,0.569,11.236l0.021,0.251v4.337
			c0.265,3.516,0.524,7.427,0.772,11.629c0.246,4.245,0.621,8.008,1.115,11.192l0.029,0.187l0.41,4.5
			c0.253,3.088,0.571,6.799,0.946,11.176l0.036,0.417c0.393,4.594,0.72,8.597,0.983,12.003l0.369,4.053
			c0.547,3.651,0.824,7.915,0.824,12.675c0,4.241,0.236,7.797,0.701,10.568l0.03,0.2l0.837,6.273v0.398
			c0,4.631-1.495,8.671-4.443,12.008c-3.089,3.503-7.423,5.358-12.53,5.358H669.81z"/>
	</g>
	<g>
		<path d="M841.86,300.573c-5.559,0-10.021-1.647-13.263-4.897l-1.43-1.431c-3.4-2.087-6.793-4.955-10.098-8.536
			c-2.958-3.2-5.562-5.81-7.738-7.754l-4.579-3.814c-2.726-2.183-5.814-4.928-9.181-8.162c-3.126-2.996-5.959-5.763-8.42-8.222
			l-4.459-4.087c-2.688-2.158-5.738-4.872-9.067-8.068c-3.182-3.053-6.018-5.821-8.428-8.23l-4.966-4.584
			c-2.418-2.148-5.333-4.798-8.667-7.88c-3.293-3.038-6.169-5.651-8.54-7.764l-5.019-4.631c-2.677-2.147-5.762-4.832-9.172-7.984
			c-3.46-3.191-6.328-6.057-8.524-8.517l-4.188-4.188c-2.147-2.147-5.002-4.625-8.483-7.367c-3.7-2.902-6.815-5.476-9.25-7.642
			l-5.329-4.568c-6.033-4.692-7.305-9.804-7.305-13.276c0-5.233,4.063-9.433,7.119-12.136c3.4-3.007,6.854-6.015,10.271-8.945
			l1.925-2.31l0.337-0.299c2.19-1.945,4.816-4.574,7.806-7.813c2.88-3.116,5.492-5.989,7.768-8.544l2.708-3.096
			c2.165-2.438,4.923-5.398,8.227-8.832c3.369-3.503,6.152-6.351,8.507-8.705l3.261-3.261l0.133-0.118
			c2.192-1.947,4.818-4.575,7.805-7.812c3.262-3.53,6.008-6.406,8.398-8.796l3.918-3.919c2.051-2.051,4.632-4.761,7.671-8.056
			c3.281-3.55,6.193-6.464,8.901-8.907l3.809-3.809c2.396-2.397,5.137-5.202,8.142-8.336c2.992-3.115,5.577-5.894,7.688-8.264
			l3.548-3.942c2.095-2.359,4.853-5.319,8.17-8.768c3.298-3.428,5.921-6.115,8.015-8.212l3.92-4.311l0.101-0.1
			c3.456-3.458,7.77-5.286,12.473-5.286c4.819,0,9.206,2.041,12.687,5.901l0.182,0.201l1.106,1.475
			c3.246,3.408,4.959,7.73,4.959,12.531c0,4.26-1.498,8.291-4.452,11.98l-0.206,0.258l-0.896,0.896
			c-2.19,2.455-4.906,5.368-8.074,8.661c-3.176,3.3-5.812,6.129-7.839,8.409l-2.466,2.876l-0.163,0.163
			c-2.284,2.284-5.024,5.09-8.146,8.34c-2.98,3.108-5.713,5.907-8.122,8.32l-1.75,2.1c-2.239,2.79-5.171,5.934-8.716,9.344
			c-3.43,3.3-6.39,6.058-8.798,8.197l-0.146,0.13l-3.387,2.634l-8.162,8.162c-3.183,3.183-5.804,5.931-7.79,8.167l-0.118,0.133
			l-3.139,3.139c-2.271,2.548-4.894,5.432-7.796,8.574c-3.22,3.489-5.759,6.282-7.76,8.535l-0.651,0.716l3.089-0.441
			c3.29-0.544,7.314-1.021,11.964-1.42c4.573-0.392,8.434-0.717,11.572-0.98l0.241-0.015l8.919-0.388
			c3.489-0.264,7.515-0.527,11.965-0.784c4.439-0.25,8.274-0.51,11.404-0.772l10.641-0.789c0.444-0.037,0.93-0.057,1.409-0.057
			c4.25,0,8.104,1.514,11.453,4.501c3.657,3.278,5.706,7.315,6.101,12.011l0.021,0.25v4.171c0,4.683-1.315,8.846-3.909,12.373
			c-2.007,2.724-5.826,6.066-12.644,6.545l-0.21,0.015h-0.898c-3.244,0.52-7.181,0.912-11.713,1.167
			c-4.421,0.255-8.262,0.515-11.407,0.773l-0.245,0.02h-2.146c-3.515,0.519-7.628,0.848-12.236,0.977
			c-4.44,0.131-8.225,0.323-11.239,0.57l-0.245,0.02h-2.205c-3.307,0-7.161,0.063-11.785,0.194
			c-4.135,0.122-7.819,0.188-10.963,0.197l0.219,0.218c2.42,2.158,5.303,4.779,8.569,7.793c3.292,3.043,6.15,5.642,8.499,7.728
			l2.878,2.467l0.162,0.163c2.31,2.31,5.152,5.022,8.448,8.063c3.38,3.124,6.192,5.927,8.367,8.342l2.618,2.244l0.162,0.163
			c2.313,2.313,5.156,5.025,8.448,8.062c3.283,3.034,6.205,5.576,8.69,7.561l0.124,0.099l3.646,3.241
			c2.417,2.152,5.345,4.813,8.704,7.912c3.522,3.256,6.429,6.165,8.643,8.649l2.867,3.277l0.084,0.105
			c1.841,2.305,4.406,4.861,7.625,7.6c3.521,3.002,6.52,5.6,8.914,7.727l4.364,3.967c3.842,3.462,5.883,7.849,5.883,12.669
			c0,4.858-1.907,8.973-5.521,11.926l-1.33,1.33C851.477,298.927,847.149,300.573,841.86,300.573z"/>
	</g>
	<g>
		<path d="M890.583,299.005c-5.597,0-10.376-2.163-13.842-6.261l-1.214-1.214l-0.205-0.256c-2.958-3.684-4.457-7.717-4.457-11.986
			c0-5.281,1.998-9.897,5.78-13.36l0.683-0.683c2.427-2.427,5.387-5.253,8.794-8.396c3.16-2.921,6.089-5.583,8.699-7.909
			l3.177-2.778c2.22-1.973,5.013-4.512,8.504-7.732c3.354-3.101,6.198-5.814,8.448-8.064l3.261-3.261l0.134-0.118
			c2.234-1.984,5.027-4.523,8.537-7.761c3.166-2.926,6.094-5.588,8.699-7.909l3.648-3.242l0.121-0.097
			c2.537-2.032,5.494-4.539,8.787-7.452c3.43-3.033,6.538-5.668,9.24-7.832l3.921-3.137c1.667-1.335,1.667-2.298,1.667-2.762
			c0-0.462,0-1.422-1.676-2.768l-0.255-0.205l-2.349-2.349c-2.639-2.117-5.659-4.682-8.984-7.629
			c-3.415-3.015-6.407-5.804-8.885-8.282l-3.136-3.135c-2.057-2.05-4.771-4.635-8.061-7.675c-3.198-2.95-6.1-5.476-8.621-7.504
			l-3.2-2.403c-2.699-2.156-5.812-4.793-9.249-7.84c-3.398-3-6.276-5.554-8.633-7.652l-0.13-0.115l-2.866-2.866
			c-2.268-2.268-5.032-4.906-8.452-8.067c-3.23-2.98-6.158-5.527-8.698-7.566l-0.117-0.094l-3.57-3.173
			c-5.606-4.703-6.786-9.753-6.786-13.169c0-4.951,4.007-8.855,7.498-11.703c3.344-2.723,6.817-5.881,10.328-9.392l0.162-0.163
			l2.746-2.353c2.397-2.389,5.331-5.12,8.725-8.122c3.438-3.04,6.546-5.675,9.239-7.832l3.21-2.411
			c2.604-2.086,5.63-4.598,8.993-7.466c3.484-2.963,6.416-5.504,8.72-7.557l4.266-3.878c2.281-2.027,4.983-4.54,8.311-7.73
			c3.242-3.115,6.255-5.799,8.957-7.979l3.141-3.14l0.258-0.207c3.689-2.954,7.852-4.452,12.372-4.452
			c4.702,0,9.016,1.827,12.473,5.284l1.805,1.805l0.208,0.261c2.952,3.694,4.448,7.592,4.448,11.583
			c0,4.959-1.827,9.408-5.285,12.865l-6.915,6.509c-2.355,2.098-5.238,4.65-8.638,7.656c-3.431,3.036-6.54,5.671-9.238,7.832
			l-7.274,5.655c-2.613,1.901-5.472,4.399-8.498,7.425L924.61,91.491c-0.965,0.965-1.377,2.041-1.377,3.596
			c0,1.676,0.471,2.96,1.519,4.115l1.378,1.034l0.188,0.167c2.432,2.166,5.359,4.827,8.7,7.909c3.312,3.06,6.183,5.67,8.538,7.762
			l3.008,2.631c2.729,2.196,5.832,4.896,9.226,8.026c3.236,2.991,6.044,5.544,8.353,7.598l3.139,2.354l0.188,0.168
			c2.433,2.166,5.359,4.827,8.7,7.909c3.387,3.13,6.205,5.941,8.388,8.365l3.011,2.635l0.142,0.141
			c2.411,2.412,5.216,5.151,8.336,8.142c3.134,3.01,5.962,5.526,8.41,7.481l0.262,0.209l2.98,2.98
			c3.768,3.778,5.676,7.841,5.676,12.081c0,4.941-2.115,9.256-6.119,12.482l-2.234,1.862c-2.53,2.254-5.378,4.844-8.467,7.699
			c-3.245,2.994-5.873,5.619-7.816,7.808l-0.118,0.133l-3.262,3.262c-2.11,2.111-4.858,4.729-8.399,8.002
			c-3.5,3.229-6.641,5.958-9.338,8.116l-3.592,2.795c-2.468,1.978-5.521,4.511-9.007,7.477c-3.467,2.955-6.403,5.5-8.723,7.559
			l-0.146,0.13l-3.523,2.74c-2.519,2.246-5.341,4.812-8.392,7.632c-3.236,2.985-6.035,5.655-8.328,7.943l-3.134,3.526l-0.125,0.124
			c-2.414,2.415-5.31,5.176-8.607,8.209c-3.306,3.04-6.342,5.672-9.025,7.826l-3.167,2.771l-0.136,0.105
			C898.299,297.657,894.554,299.005,890.583,299.005z"/>
	</g>
</g>
</svg>
